<?xml version="1.0" encoding="UTF-8"?>
<svg xmlns="http://www.w3.org/2000/svg" version="1.1" width="50mm" height="50mm" viewBox="-94.48819 -94.48819 188.97638 188.97638">
  <path id="printed-solid" fill="#000000" fill-rule="evenodd" d="M 94.486 -0.686 L 94.485 -0.691 L 94.338 -5.321 L 94.338 -5.327 L 93.963 -9.944 L 93.963 -9.949 L 93.362 -14.542 L 93.361 -14.548 L 92.536 -19.106 L 92.535 -19.111 L 91.487 -23.623 L 91.486 -23.629 L 90.218 -28.084 L 90.216 -28.089 L 88.731 -32.477 L 88.729 -32.482 L 87.031 -36.792 L 87.029 -36.797 L 85.121 -41.018 L 85.118 -41.023 L 83.006 -45.145 L 83.003 -45.150 L 80.690 -49.163 L 80.688 -49.168 L 78.181 -53.063 L 78.178 -53.068 L 75.483 -56.836 L 75.480 -56.840 L 72.603 -60.471 L 72.600 -60.475 L 69.549 -63.961 L 69.545 -63.965 L 66.327 -67.296 L 66.323 -67.300 L 62.945 -70.470 L 62.940 -70.473 L 59.411 -73.473 L 59.407 -73.477 L 55.734 -76.300 L 55.730 -76.303 L 51.923 -78.943 L 51.919 -78.946 L 47.987 -81.395 L 47.982 -81.398 L 43.935 -83.652 L 43.931 -83.655 L 39.778 -85.707 L 39.773 -85.709 L 35.525 -87.556 L 35.519 -87.558 L 31.186 -89.193 L 31.180 -89.195 L 26.772 -90.616 L 26.766 -90.618 L 22.293 -91.821 L 22.288 -91.822 L 17.761 -92.804 L 17.755 -92.805 L 13.186 -93.563 L 13.180 -93.564 L 8.579 -94.098 L 8.573 -94.098 L 3.951 -94.405 L 3.946 -94.406 L -0.686 -94.486 L -0.691 -94.485 L -5.321 -94.338 L -5.327 -94.338 L -9.944 -93.963 L -9.949 -93.963 L -14.542 -93.362 L -14.548 -93.361 L -19.106 -92.536 L -19.111 -92.535 L -23.623 -91.487 L -23.629 -91.486 L -28.084 -90.218 L -28.089 -90.216 L -32.477 -88.731 L -32.482 -88.729 L -36.792 -87.031 L -36.797 -87.029 L -41.018 -85.121 L -41.023 -85.118 L -45.145 -83.006 L -45.150 -83.003 L -49.163 -80.690 L -49.168 -80.688 L -53.063 -78.181 L -53.068 -78.178 L -56.836 -75.483 L -56.840 -75.480 L -60.471 -72.603 L -60.475 -72.600 L -63.961 -69.549 L -63.965 -69.545 L -67.296 -66.327 L -67.300 -66.323 L -70.470 -62.945 L -70.473 -62.940 L -73.473 -59.411 L -73.477 -59.407 L -76.300 -55.734 L -76.303 -55.730 L -78.943 -51.923 L -78.946 -51.919 L -81.395 -47.987 L -81.398 -47.982 L -83.652 -43.935 L -83.655 -43.931 L -85.707 -39.778 L -85.709 -39.773 L -87.556 -35.525 L -87.558 -35.519 L -89.193 -31.186 L -89.195 -31.180 L -90.616 -26.772 L -90.618 -26.766 L -91.821 -22.293 L -91.822 -22.288 L -92.804 -17.761 L -92.805 -17.755 L -93.563 -13.186 L -93.564 -13.180 L -94.098 -8.579 L -94.098 -8.573 L -94.405 -3.951 L -94.406 -3.946 L -94.486 0.686 L -94.485 0.691 L -94.338 5.321 L -94.338 5.327 L -93.963 9.944 L -93.963 9.949 L -93.362 14.542 L -93.361 14.548 L -92.536 19.106 L -92.535 19.111 L -91.487 23.623 L -91.486 23.629 L -90.218 28.084 L -90.216 28.089 L -88.731 32.477 L -88.729 32.482 L -87.031 36.792 L -87.029 36.797 L -85.121 41.018 L -85.118 41.023 L -83.006 45.145 L -83.003 45.150 L -80.690 49.163 L -80.688 49.168 L -78.181 53.063 L -78.178 53.068 L -75.483 56.836 L -75.480 56.840 L -72.603 60.471 L -72.600 60.475 L -69.549 63.961 L -69.545 63.965 L -66.327 67.296 L -66.323 67.300 L -62.945 70.470 L -62.940 70.473 L -59.411 73.473 L -59.407 73.477 L -55.734 76.300 L -55.730 76.303 L -51.923 78.943 L -51.919 78.946 L -47.987 81.395 L -47.982 81.398 L -43.935 83.652 L -43.931 83.655 L -39.778 85.707 L -39.773 85.709 L -35.525 87.556 L -35.519 87.558 L -31.186 89.193 L -31.180 89.195 L -26.772 90.616 L -26.766 90.618 L -22.293 91.821 L -22.288 91.822 L -17.761 92.804 L -17.755 92.805 L -13.186 93.563 L -13.180 93.564 L -8.579 94.098 L -8.573 94.098 L -3.951 94.405 L -3.946 94.406 L 0.686 94.486 L 0.691 94.485 L 5.321 94.338 L 5.327 94.338 L 9.944 93.963 L 9.949 93.963 L 14.542 93.362 L 14.548 93.361 L 19.106 92.536 L 19.111 92.535 L 23.623 91.487 L 23.629 91.486 L 28.084 90.218 L 28.089 90.216 L 32.477 88.731 L 32.482 88.729 L 36.792 87.031 L 36.797 87.029 L 41.018 85.121 L 41.023 85.118 L 45.145 83.006 L 45.150 83.003 L 49.163 80.690 L 49.168 80.688 L 53.063 78.181 L 53.068 78.178 L 56.836 75.483 L 56.840 75.480 L 60.471 72.603 L 60.475 72.600 L 63.961 69.549 L 63.965 69.545 L 67.296 66.327 L 67.300 66.323 L 70.470 62.945 L 70.473 62.940 L 73.473 59.411 L 73.477 59.407 L 76.300 55.734 L 76.303 55.730 L 78.943 51.923 L 78.946 51.919 L 81.395 47.987 L 81.398 47.982 L 83.652 43.935 L 83.655 43.931 L 85.707 39.778 L 85.709 39.773 L 87.556 35.525 L 87.558 35.519 L 89.193 31.186 L 89.195 31.180 L 90.616 26.772 L 90.618 26.766 L 91.821 22.293 L 91.822 22.288 L 92.804 17.761 L 92.805 17.755 L 93.563 13.186 L 93.564 13.180 L 94.098 8.579 L 94.098 8.573 L 94.405 3.951 L 94.406 3.946 Z M -78.316 -35.268 L -78.321 -35.269 L -79.078 -35.361 L -79.100 -35.365 L -79.122 -35.371 L -79.143 -35.380 L -79.164 -35.390 L -79.183 -35.402 L -79.201 -35.417 L -79.217 -35.432 L -79.231 -35.450 L -79.244 -35.469 L -79.255 -35.489 L -79.264 -35.510 L -79.271 -35.531 L -79.275 -35.554 L -79.277 -35.576 L -79.277 -35.599 L -79.275 -35.622 L -79.270 -35.644 L -79.263 -35.665 L -79.254 -35.686 L -76.621 -41.059 L -76.613 -41.073 L -73.464 -46.472 L -73.455 -46.485 L -69.886 -51.696 L -69.876 -51.710 L -65.981 -56.596 L -65.970 -56.609 L -61.685 -61.250 L -61.674 -61.261 L -57.113 -65.534 L -57.101 -65.545 L -52.244 -69.478 L -52.231 -69.488 L -47.047 -73.097 L -47.034 -73.106 L -41.660 -76.296 L -41.645 -76.304 L -35.995 -79.126 L -35.980 -79.133 L -30.139 -81.537 L -30.124 -81.542 L -24.187 -83.496 L -24.171 -83.501 L -18.110 -85.021 L -18.094 -85.025 L -11.938 -86.105 L -11.922 -86.107 L -5.638 -86.746 L -5.622 -86.747 L 0.624 -86.926 L 0.643 -86.926 L 9.140 -86.447 L 9.162 -86.444 L 17.569 -85.135 L 17.591 -85.130 L 25.829 -83.003 L 25.850 -82.996 L 33.840 -80.071 L 33.861 -80.063 L 41.526 -76.369 L 41.545 -76.358 L 48.811 -71.931 L 48.829 -71.918 L 55.626 -66.800 L 55.644 -66.786 L 61.906 -61.026 L 61.922 -61.010 L 67.590 -54.664 L 67.604 -54.647 L 72.622 -47.776 L 72.634 -47.758 L 76.955 -40.428 L 76.966 -40.408 L 80.548 -32.690 L 80.556 -32.670 L 83.364 -24.638 L 83.370 -24.617 L 85.377 -16.348 L 85.382 -16.326 L 86.569 -7.901 L 86.571 -7.879 L 86.926 0.622 L 86.926 0.645 L 86.447 9.140 L 86.444 9.162 L 85.135 17.569 L 85.130 17.591 L 83.003 25.829 L 82.996 25.850 L 80.071 33.840 L 80.063 33.861 L 76.369 41.526 L 76.358 41.545 L 71.931 48.811 L 71.918 48.829 L 66.800 55.626 L 66.786 55.644 L 61.026 61.906 L 61.010 61.922 L 54.664 67.590 L 54.647 67.604 L 47.776 72.622 L 47.758 72.634 L 40.428 76.955 L 40.408 76.966 L 32.690 80.548 L 32.670 80.556 L 24.638 83.364 L 24.617 83.370 L 16.348 85.377 L 16.326 85.382 L 7.901 86.569 L 7.879 86.571 L -0.622 86.926 L -0.645 86.926 L -9.140 86.447 L -9.162 86.444 L -17.569 85.135 L -17.591 85.130 L -25.829 83.003 L -25.850 82.996 L -33.840 80.071 L -33.861 80.063 L -41.526 76.369 L -41.545 76.358 L -48.811 71.931 L -48.829 71.918 L -55.626 66.800 L -55.644 66.786 L -61.906 61.026 L -61.922 61.010 L -67.590 54.664 L -67.604 54.647 L -72.622 47.776 L -72.634 47.758 L -76.955 40.428 L -76.966 40.408 L -80.548 32.690 L -80.556 32.670 L -83.364 24.638 L -83.370 24.617 L -85.377 16.348 L -85.382 16.326 L -86.569 7.901 L -86.571 7.879 L -86.926 -0.623 L -86.926 -0.644 L -86.589 -7.682 L -86.587 -7.700 L -85.679 -14.688 L -85.676 -14.706 L -84.203 -21.598 L -84.198 -21.616 L -82.231 -28.169 L -82.223 -28.190 L -82.214 -28.210 L -82.202 -28.230 L -82.189 -28.248 L -82.174 -28.264 L -82.157 -28.279 L -82.139 -28.292 L -82.120 -28.304 L -82.100 -28.313 L -82.079 -28.321 L -82.057 -28.326 L -82.035 -28.330 L -82.013 -28.331 L -81.990 -28.329 L -81.062 -28.234 L -81.057 -28.233 L -81.053 -28.233 L -76.806 -28.431 L -76.784 -28.431 L -76.762 -28.429 L -76.740 -28.425 L -76.719 -28.418 L -76.698 -28.410 L -75.213 -27.711 L -75.208 -27.708 L -75.202 -27.708 L -70.870 -27.647 L -70.847 -27.645 L -70.824 -27.642 L -70.801 -27.635 L -68.944 -27.015 L -68.938 -27.013 L -68.932 -27.013 L -61.911 -27.079 L -61.891 -27.078 L -61.870 -27.076 L -61.850 -27.071 L -61.830 -27.065 L -61.811 -27.056 L -60.784 -26.560 L -60.779 -26.558 L -60.774 -26.557 L -59.698 -26.375 L -59.677 -26.371 L -59.656 -26.364 L -59.636 -26.356 L -59.617 -26.345 L -59.600 -26.333 L -59.583 -26.320 L -58.709 -25.527 L -58.705 -25.523 L -58.700 -25.520 L -58.036 -25.206 L -58.031 -25.204 L -58.025 -25.204 L -56.133 -25.123 L -56.128 -25.123 L -56.124 -25.124 L -55.235 -25.309 L -55.212 -25.313 L -55.189 -25.314 L -55.165 -25.313 L -55.142 -25.310 L -55.120 -25.304 L -54.746 -25.185 L -54.725 -25.177 L -54.704 -25.167 L -54.685 -25.155 L -54.667 -25.142 L -54.651 -25.126 L -54.636 -25.109 L -54.623 -25.091 L -54.612 -25.072 L -54.094 -24.052 L -54.085 -24.033 L -54.078 -24.013 L -54.073 -23.992 L -54.070 -23.971 L -54.069 -23.950 L -54.069 -23.492 L -54.070 -23.472 L -54.073 -23.451 L -54.078 -23.431 L -54.084 -23.412 L -54.092 -23.393 L -54.102 -23.375 L -54.459 -22.785 L -54.473 -22.766 L -54.488 -22.748 L -54.505 -22.731 L -54.524 -22.717 L -55.251 -22.210 L -55.255 -22.207 L -55.258 -22.204 L -56.371 -20.922 L -56.374 -20.918 L -56.377 -20.914 L -57.741 -18.180 L -57.743 -18.176 L -57.744 -18.171 L -58.031 -16.845 L -58.037 -16.825 L -58.044 -16.806 L -58.052 -16.787 L -59.085 -14.833 L -59.087 -14.827 L -59.089 -14.821 L -59.260 -13.734 L -59.266 -13.710 L -59.273 -13.686 L -59.284 -13.663 L -59.802 -12.690 L -59.804 -12.685 L -59.805 -12.679 L -59.924 -11.102 L -59.927 -11.077 L -59.933 -11.053 L -59.941 -11.029 L -59.953 -11.007 L -60.408 -10.202 L -60.410 -10.198 L -60.411 -10.193 L -60.583 -9.107 L -60.587 -9.088 L -60.593 -9.068 L -60.600 -9.049 L -60.609 -9.031 L -61.070 -8.218 L -61.072 -8.213 L -61.073 -8.209 L -61.245 -7.211 L -61.250 -7.189 L -61.257 -7.167 L -61.266 -7.146 L -61.744 -6.211 L -61.746 -6.206 L -61.746 -6.201 L -61.907 -4.580 L -61.911 -4.556 L -61.917 -4.533 L -61.925 -4.511 L -61.936 -4.489 L -62.307 -3.845 L -62.310 -3.840 L -62.311 -3.834 L -62.568 -2.575 L -62.572 -2.557 L -62.578 -2.539 L -62.585 -2.522 L -63.087 -1.479 L -63.089 -1.474 L -63.089 -1.469 L -63.174 -0.077 L -63.176 -0.056 L -63.180 -0.036 L -63.186 -0.016 L -63.194 0.004 L -63.754 1.228 L -63.756 1.233 L -63.757 1.239 L -63.800 2.503 L -63.801 2.523 L -63.805 2.544 L -63.810 2.563 L -63.817 2.583 L -63.826 2.601 L -64.395 3.675 L -64.397 3.680 L -64.397 3.684 L -64.461 5.150 L -64.463 5.170 L -64.466 5.190 L -64.471 5.209 L -64.478 5.228 L -64.487 5.246 L -65.055 6.320 L -65.058 6.325 L -65.059 6.331 L -65.122 7.698 L -65.124 7.719 L -65.128 7.740 L -65.134 7.760 L -65.142 7.780 L -65.151 7.799 L -65.605 8.601 L -65.607 8.606 L -65.608 8.611 L -65.780 9.701 L -65.785 9.724 L -65.793 9.747 L -65.802 9.768 L -66.352 10.846 L -66.355 10.851 L -66.355 10.857 L -66.446 13.565 L -66.448 13.587 L -66.452 13.609 L -66.458 13.631 L -66.466 13.651 L -67.040 14.919 L -67.042 14.924 L -67.043 14.929 L -67.106 16.203 L -67.108 16.224 L -67.112 16.244 L -67.118 16.264 L -67.125 16.284 L -67.135 16.302 L -67.531 17.012 L -67.533 17.018 L -67.535 17.023 L -67.763 18.204 L -67.769 18.228 L -67.777 18.251 L -67.788 18.272 L -68.175 18.957 L -68.177 18.963 L -68.179 18.968 L -68.424 20.163 L -68.429 20.182 L -68.435 20.201 L -68.443 20.219 L -68.904 21.145 L -68.906 21.150 L -68.907 21.156 L -68.996 22.632 L -68.998 22.656 L -69.003 22.680 L -69.011 22.703 L -69.021 22.724 L -70.140 24.852 L -70.143 24.858 L -70.144 24.863 L -70.315 25.860 L -70.320 25.882 L -70.328 25.904 L -70.337 25.925 L -72.151 29.459 L -72.153 29.464 L -72.154 29.470 L -72.260 31.265 L -72.260 31.271 L -72.258 31.276 L -72.011 31.968 L -72.009 31.973 L -72.005 31.978 L -71.510 32.597 L -71.507 32.601 L -71.502 32.604 L -70.299 33.234 L -70.294 33.236 L -70.289 33.236 L -68.763 33.123 L -68.758 33.122 L -68.753 33.120 L -68.123 32.742 L -68.118 32.739 L -68.114 32.735 L -67.609 32.164 L -67.605 32.160 L -67.603 32.155 L -62.104 20.856 L -62.094 20.837 L -62.082 20.819 L -62.069 20.803 L -60.467 19.032 L -60.464 19.028 L -60.461 19.024 L -57.567 13.104 L -57.558 13.088 L -57.548 13.072 L -57.537 13.057 L -56.594 11.947 L -56.590 11.942 L -56.586 11.936 L -53.162 5.100 L -53.160 5.096 L -53.159 5.091 L -52.898 3.899 L -52.893 3.880 L -52.886 3.862 L -52.878 3.844 L -51.164 0.508 L -51.161 0.502 L -51.160 0.496 L -51.007 -0.624 L -51.003 -0.644 L -50.998 -0.664 L -50.991 -0.683 L -50.982 -0.702 L -49.971 -2.561 L -49.959 -2.580 L -49.946 -2.597 L -49.931 -2.614 L -49.915 -2.629 L -49.897 -2.642 L -49.878 -2.653 L -49.858 -2.662 L -49.837 -2.670 L -49.815 -2.675 L -49.793 -2.678 L -49.771 -2.679 L -49.749 -2.678 L -49.727 -2.675 L -49.706 -2.669 L -49.685 -2.662 L -49.665 -2.653 L -49.646 -2.641 L -49.628 -2.628 L -49.612 -2.613 L -49.597 -2.597 L -49.583 -2.579 L -49.572 -2.560 L -49.562 -2.540 L -49.555 -2.519 L -49.549 -2.498 L -49.546 -2.476 L -49.545 -2.454 L -49.515 3.083 L -49.515 3.089 L -49.513 3.096 L -49.335 3.807 L -49.333 3.813 L -49.330 3.819 L -48.908 4.476 L -48.898 4.494 L -48.889 4.514 L -48.882 4.534 L -48.876 4.555 L -48.873 4.576 L -48.872 4.598 L -48.854 10.831 L -48.853 10.837 L -48.852 10.844 L -48.695 11.515 L -48.694 11.520 L -48.691 11.525 L -48.239 12.324 L -48.229 12.344 L -48.221 12.365 L -48.215 12.387 L -48.212 12.409 L -48.210 12.431 L -48.145 15.780 L -48.145 15.785 L -48.143 15.790 L -47.577 16.858 L -47.567 16.879 L -47.560 16.900 L -47.554 16.922 L -47.551 16.945 L -47.550 16.967 L -47.601 20.485 L -47.601 20.491 L -47.600 20.496 L -47.351 21.383 L -47.349 21.388 L -47.346 21.393 L -46.925 22.049 L -46.914 22.068 L -46.905 22.088 L -46.898 22.109 L -46.893 22.131 L -46.890 22.153 L -46.889 22.175 L -46.953 26.340 L -46.953 26.346 L -46.951 26.351 L -46.337 27.831 L -46.330 27.851 L -46.325 27.871 L -46.322 27.891 L -46.320 27.912 L -46.255 30.519 L -46.255 30.525 L -46.253 30.531 L -45.679 31.733 L -45.670 31.756 L -45.663 31.780 L -45.659 31.804 L -45.657 31.828 L -45.630 34.277 L -45.630 34.283 L -45.628 34.288 L -45.017 35.671 L -45.009 35.692 L -45.003 35.714 L -44.999 35.735 L -44.997 35.757 L -44.933 38.362 L -44.932 38.368 L -44.930 38.373 L -44.359 39.541 L -44.350 39.564 L -44.342 39.588 L -44.338 39.612 L -44.336 39.637 L -44.308 41.458 L -44.307 41.464 L -44.305 41.469 L -43.693 42.853 L -43.686 42.874 L -43.680 42.895 L -43.676 42.916 L -43.674 42.938 L -43.610 44.977 L -43.609 44.982 L -43.607 44.987 L -43.039 46.060 L -43.030 46.078 L -43.023 46.098 L -43.018 46.118 L -43.014 46.138 L -43.013 46.159 L -42.948 48.189 L -42.948 48.194 L -42.946 48.200 L -42.376 49.366 L -42.368 49.385 L -42.361 49.405 L -42.357 49.425 L -42.354 49.445 L -42.353 49.466 L -42.418 65.458 L -42.417 65.464 L -42.415 65.469 L -41.880 66.723 L -41.878 66.728 L -41.873 66.732 L -40.721 67.589 L -40.717 67.592 L -40.712 67.593 L -39.820 67.766 L -39.815 67.767 L -39.810 67.766 L -38.709 67.475 L -38.704 67.473 L -38.700 67.470 L -37.780 66.638 L -37.776 66.634 L -37.773 66.628 L -37.348 65.670 L -37.346 65.664 L -37.346 65.659 L -37.302 63.643 L -37.300 63.621 L -37.297 63.599 L -37.291 63.578 L -37.283 63.557 L -37.273 63.537 L -36.878 62.830 L -36.876 62.825 L -36.875 62.820 L -36.652 61.859 L -36.651 61.852 L -36.651 61.845 L -36.733 56.656 L -36.732 56.632 L -36.729 56.608 L -36.723 56.585 L -36.714 56.562 L -36.703 56.541 L -36.253 55.746 L -36.251 55.741 L -36.250 55.736 L -36.093 55.064 L -36.092 55.058 L -36.091 55.052 L -36.073 46.832 L -36.072 46.811 L -36.069 46.790 L -36.064 46.770 L -36.057 46.750 L -36.049 46.731 L -36.039 46.713 L -35.573 45.956 L -35.571 45.951 L -35.569 45.945 L -35.416 44.910 L -35.412 44.889 L -35.405 44.868 L -35.397 44.848 L -34.797 43.560 L -34.795 43.554 L -34.795 43.548 L -34.750 35.778 L -34.749 35.757 L -34.746 35.736 L -34.741 35.715 L -34.734 35.695 L -34.725 35.676 L -34.714 35.657 L -34.292 35.000 L -34.289 34.994 L -34.287 34.989 L -34.109 34.277 L -34.108 34.271 L -34.107 34.264 L -34.107 16.382 L -34.108 16.375 L -34.109 16.368 L -34.287 15.657 L -34.289 15.651 L -34.292 15.646 L -34.714 14.989 L -34.725 14.970 L -34.734 14.951 L -34.741 14.930 L -34.746 14.910 L -34.749 14.889 L -34.750 14.867 L -34.779 9.755 L -34.779 9.749 L -34.782 9.743 L -35.390 8.458 L -35.399 8.436 L -35.406 8.412 L -35.410 8.388 L -35.411 8.364 L -35.440 5.219 L -35.441 5.213 L -35.443 5.207 L -36.052 3.921 L -36.061 3.899 L -36.068 3.877 L -36.072 3.854 L -36.074 3.831 L -36.138 1.701 L -36.139 1.695 L -36.141 1.690 L -36.625 0.694 L -36.634 0.675 L -36.640 0.654 L -36.645 0.634 L -36.817 -0.365 L -36.818 -0.371 L -36.821 -0.376 L -37.284 -1.222 L -37.295 -1.246 L -37.303 -1.270 L -37.309 -1.295 L -37.478 -2.350 L -37.479 -2.355 L -37.482 -2.360 L -37.941 -3.171 L -37.951 -3.190 L -37.958 -3.210 L -37.964 -3.230 L -37.968 -3.251 L -38.113 -4.263 L -38.114 -4.268 L -38.117 -4.272 L -38.595 -5.141 L -38.605 -5.162 L -38.613 -5.184 L -38.619 -5.206 L -38.622 -5.229 L -38.623 -5.252 L -38.617 -6.151 L -38.615 -6.174 L -38.612 -6.195 L -38.606 -6.217 L -38.599 -6.238 L -38.589 -6.258 L -38.578 -6.277 L -38.564 -6.295 L -38.549 -6.311 L -38.533 -6.326 L -38.515 -6.339 L -38.496 -6.350 L -38.476 -6.360 L -38.455 -6.367 L -38.433 -6.372 L -38.411 -6.376 L -38.389 -6.377 L -38.367 -6.375 L -38.345 -6.372 L -38.324 -6.367 L -38.303 -6.359 L -38.283 -6.350 L -38.264 -6.338 L -38.246 -6.325 L -38.229 -6.310 L -36.574 -4.653 L -36.559 -4.636 L -36.545 -4.618 L -36.534 -4.598 L -35.816 -3.238 L -35.814 -3.234 L -35.810 -3.229 L -28.875 3.706 L -28.860 3.722 L -28.847 3.739 L -28.836 3.757 L -28.055 5.174 L -28.052 5.179 L -28.048 5.182 L -24.956 8.288 L -24.942 8.303 L -24.930 8.318 L -24.920 8.335 L -24.911 8.352 L -24.429 9.383 L -24.426 9.388 L -24.422 9.392 L -23.641 10.250 L -23.627 10.268 L -23.614 10.286 L -23.604 10.306 L -23.106 11.368 L -23.103 11.372 L -23.100 11.376 L -22.229 12.373 L -22.216 12.389 L -22.205 12.406 L -22.195 12.424 L -19.402 18.239 L -19.400 18.243 L -19.397 18.247 L -18.894 18.962 L -18.890 18.966 L -18.886 18.969 L -17.679 19.607 L -17.675 19.609 L -17.670 19.609 L -16.228 19.517 L -16.223 19.516 L -16.218 19.513 L -15.103 18.637 L -15.099 18.634 L -15.096 18.628 L -14.550 17.267 L -14.548 17.263 L -14.548 17.258 L -14.621 16.054 L -14.621 16.048 L -14.624 16.043 L -15.177 14.960 L -15.185 14.942 L -15.192 14.923 L -15.197 14.903 L -15.426 13.810 L -15.427 13.805 L -15.429 13.800 L -16.499 11.747 L -16.508 11.729 L -16.515 11.710 L -16.520 11.691 L -16.810 10.355 L -16.811 10.350 L -16.814 10.345 L -17.819 8.446 L -17.829 8.424 L -17.837 8.401 L -17.842 8.378 L -18.035 7.248 L -18.037 7.242 L -18.039 7.236 L -19.140 5.236 L -19.149 5.218 L -19.156 5.200 L -19.161 5.181 L -19.165 5.162 L -19.358 3.939 L -19.359 3.935 L -19.362 3.930 L -20.463 1.928 L -20.471 1.911 L -20.479 1.893 L -20.484 1.874 L -20.488 1.855 L -20.681 0.634 L -20.682 0.628 L -20.685 0.622 L -22.248 -2.391 L -22.251 -2.396 L -22.255 -2.400 L -23.026 -3.205 L -23.042 -3.223 L -23.056 -3.243 L -23.067 -3.264 L -24.138 -5.509 L -24.141 -5.514 L -24.144 -5.518 L -25.029 -6.534 L -25.043 -6.551 L -25.055 -6.570 L -25.065 -6.590 L -26.028 -8.721 L -26.031 -8.726 L -26.034 -8.731 L -26.947 -9.743 L -26.962 -9.761 L -26.975 -9.781 L -26.986 -9.802 L -27.474 -10.881 L -27.477 -10.886 L -27.480 -10.889 L -28.798 -12.234 L -28.813 -12.252 L -28.827 -12.271 L -28.838 -12.291 L -29.458 -13.526 L -29.461 -13.531 L -29.465 -13.536 L -31.431 -15.526 L -31.444 -15.541 L -31.457 -15.557 L -31.467 -15.574 L -32.310 -17.077 L -32.312 -17.081 L -32.316 -17.085 L -34.465 -19.197 L -34.469 -19.201 L -34.473 -19.203 L -35.568 -19.700 L -35.586 -19.709 L -35.602 -19.719 L -35.618 -19.731 L -35.632 -19.744 L -37.016 -21.087 L -37.020 -21.090 L -37.024 -21.093 L -38.442 -21.902 L -38.461 -21.914 L -38.478 -21.928 L -38.494 -21.943 L -38.509 -21.960 L -38.522 -21.979 L -38.533 -21.999 L -38.542 -22.019 L -38.548 -22.041 L -38.553 -22.063 L -38.556 -22.085 L -38.556 -22.107 L -38.554 -22.130 L -38.550 -22.152 L -38.543 -22.173 L -38.535 -22.194 L -38.056 -23.225 L -38.054 -23.229 L -38.054 -23.234 L -37.974 -24.329 L -37.974 -24.334 L -37.974 -24.339 L -38.139 -25.121 L -38.141 -25.127 L -38.143 -25.132 L -38.596 -25.932 L -38.606 -25.951 L -38.614 -25.972 L -38.620 -25.993 L -38.624 -26.014 L -38.625 -26.036 L -38.669 -27.296 L -38.669 -27.302 L -38.671 -27.308 L -38.897 -27.892 L -38.904 -27.913 L -38.909 -27.935 L -38.912 -27.958 L -38.912 -27.981 L -38.910 -28.003 L -38.906 -28.026 L -38.900 -28.048 L -38.891 -28.069 L -38.881 -28.089 L -38.868 -28.108 L -38.854 -28.125 L -38.838 -28.141 L -38.821 -28.156 L -38.802 -28.168 L -38.782 -28.179 L -38.761 -28.188 L -38.739 -28.194 L -38.716 -28.198 L -38.694 -28.200 L -34.511 -28.354 L -34.504 -28.354 L -34.499 -28.356 L -32.953 -28.954 L -32.933 -28.961 L -32.913 -28.965 L -32.892 -28.968 L -32.871 -28.969 L -28.076 -28.969 L -28.054 -28.968 L -28.032 -28.965 L -28.011 -28.960 L -27.991 -28.953 L -26.552 -28.372 L -26.546 -28.370 L -26.540 -28.369 L -23.814 -28.252 L -23.791 -28.250 L -23.768 -28.246 L -23.745 -28.239 L -23.724 -28.229 L -20.141 -26.476 L -20.122 -26.466 L -20.104 -26.454 L -20.088 -26.440 L -19.125 -25.562 L -19.120 -25.558 L -19.114 -25.555 L -18.169 -25.156 L -18.147 -25.146 L -18.126 -25.133 L -18.107 -25.117 L -17.049 -24.184 L -17.044 -24.180 L -17.038 -24.178 L -16.192 -23.836 L -16.172 -23.827 L -16.153 -23.815 L -16.135 -23.803 L -16.118 -23.788 L -14.669 -22.378 L -14.665 -22.374 L -14.660 -22.372 L -13.625 -21.931 L -13.603 -21.921 L -13.582 -21.908 L -13.563 -21.892 L -13.546 -21.875 L -13.149 -21.436 L -13.136 -21.420 L -13.124 -21.403 L -13.114 -21.385 L -12.517 -20.176 L -12.509 -20.158 L -12.503 -20.138 L -12.498 -20.119 L -12.495 -20.099 L -12.494 -20.078 L -12.465 -17.597 L -12.465 -17.591 L -12.462 -17.585 L -11.852 -16.296 L -11.844 -16.276 L -11.837 -16.255 L -11.833 -16.234 L -11.830 -16.212 L -11.741 -14.731 L -11.741 -14.725 L -11.738 -14.720 L -11.191 -13.648 L -11.182 -13.629 L -11.175 -13.609 L -11.170 -13.589 L -11.167 -13.568 L -11.080 -12.746 L -11.079 -12.741 L -11.077 -12.736 L -10.616 -11.809 L -10.608 -11.791 L -10.602 -11.773 L -10.597 -11.754 L -10.343 -10.528 L -10.341 -10.522 L -10.339 -10.517 L -9.964 -9.867 L -9.955 -9.849 L -9.947 -9.829 L -9.941 -9.810 L -9.937 -9.789 L -9.766 -8.706 L -9.765 -8.700 L -9.762 -8.695 L -7.975 -5.232 L -7.966 -5.211 L -7.958 -5.189 L -7.953 -5.166 L -7.758 -4.020 L -7.757 -4.014 L -7.754 -4.009 L -5.421 0.537 L -5.413 0.554 L -5.407 0.573 L -5.402 0.592 L -5.111 1.929 L -5.110 1.934 L -5.108 1.938 L -4.302 3.526 L -4.300 3.530 L -4.297 3.533 L -3.415 4.549 L -3.403 4.564 L -3.392 4.581 L -3.383 4.598 L -2.777 5.825 L -2.768 5.845 L -2.761 5.865 L -2.757 5.887 L -2.563 7.020 L -2.562 7.026 L -2.559 7.031 L 1.094 14.228 L 1.102 14.246 L 1.108 14.265 L 1.113 14.284 L 1.117 14.304 L 1.203 15.033 L 1.204 15.038 L 1.206 15.044 L 1.760 16.220 L 1.768 16.239 L 1.774 16.258 L 1.778 16.278 L 1.951 17.278 L 1.952 17.284 L 1.954 17.290 L 3.078 19.426 L 3.089 19.449 L 3.096 19.474 L 3.102 19.499 L 3.247 20.514 L 3.248 20.520 L 3.251 20.526 L 4.402 22.735 L 4.412 22.757 L 4.420 22.780 L 4.425 22.804 L 4.596 23.892 L 4.598 23.898 L 4.600 23.904 L 6.289 27.171 L 6.298 27.190 L 6.305 27.210 L 6.310 27.230 L 6.313 27.251 L 6.400 28.073 L 6.401 28.078 L 6.403 28.083 L 6.954 29.161 L 6.963 29.183 L 6.971 29.205 L 6.976 29.229 L 7.147 30.318 L 7.149 30.324 L 7.151 30.329 L 8.273 32.461 L 8.282 32.481 L 8.289 32.501 L 8.294 32.522 L 8.297 32.543 L 8.384 33.364 L 8.385 33.369 L 8.387 33.374 L 8.848 34.301 L 8.856 34.319 L 8.863 34.337 L 8.867 34.356 L 9.112 35.551 L 9.114 35.557 L 9.117 35.562 L 9.499 36.241 L 9.509 36.260 L 9.517 36.281 L 9.523 36.302 L 9.527 36.324 L 9.644 37.247 L 9.645 37.252 L 9.647 37.256 L 10.159 38.219 L 10.169 38.242 L 10.177 38.265 L 10.183 38.289 L 10.185 38.314 L 10.248 39.497 L 10.249 39.502 L 10.251 39.506 L 10.834 40.820 L 10.841 40.838 L 10.846 40.857 L 10.850 40.876 L 11.022 41.941 L 11.023 41.946 L 11.025 41.950 L 12.132 43.507 L 12.145 43.526 L 12.155 43.547 L 12.164 43.569 L 12.170 43.591 L 12.173 43.614 L 12.258 44.419 L 12.259 44.424 L 12.261 44.429 L 12.815 45.514 L 12.823 45.531 L 12.830 45.549 L 12.835 45.568 L 13.103 46.774 L 13.104 46.778 L 13.107 46.783 L 14.113 48.042 L 14.127 48.062 L 14.139 48.083 L 14.148 48.105 L 14.155 48.128 L 14.160 48.152 L 14.302 49.145 L 14.303 49.150 L 14.306 49.154 L 14.787 50.028 L 14.796 50.047 L 14.804 50.066 L 14.809 50.087 L 14.813 50.107 L 14.815 50.128 L 14.904 52.262 L 14.905 52.267 L 14.907 52.272 L 15.444 53.234 L 15.455 53.256 L 15.463 53.278 L 15.469 53.301 L 15.472 53.324 L 15.473 53.348 L 15.446 55.086 L 15.446 55.092 L 15.448 55.098 L 16.024 56.397 L 16.032 56.418 L 16.038 56.441 L 16.042 56.464 L 16.044 56.487 L 16.086 62.352 L 16.086 62.357 L 16.088 62.362 L 16.430 63.244 L 16.432 63.249 L 16.436 63.253 L 16.874 63.812 L 16.878 63.817 L 16.884 63.820 L 18.047 64.415 L 18.052 64.418 L 18.057 64.417 L 19.583 64.304 L 19.589 64.303 L 19.593 64.300 L 20.677 63.433 L 20.682 63.430 L 20.684 63.424 L 21.167 62.149 L 21.168 62.145 L 21.168 62.140 L 21.182 53.212 L 21.181 53.206 L 21.180 53.199 L 20.933 52.116 L 20.931 52.111 L 20.929 52.106 L 20.461 51.269 L 20.450 51.248 L 20.442 51.226 L 20.436 51.203 L 20.433 51.180 L 20.432 51.157 L 20.520 33.723 L 20.520 33.717 L 20.519 33.712 L 20.291 32.614 L 20.289 32.608 L 20.287 32.603 L 19.893 31.897 L 19.883 31.877 L 19.875 31.856 L 19.869 31.834 L 19.865 31.811 L 19.864 31.788 L 19.835 28.085 L 19.835 28.079 L 19.833 28.074 L 19.221 26.689 L 19.213 26.669 L 19.207 26.649 L 19.203 26.628 L 19.201 26.607 L 19.111 24.464 L 19.111 24.458 L 19.108 24.452 L 18.559 23.376 L 18.549 23.353 L 18.541 23.330 L 18.536 23.306 L 18.383 22.275 L 18.382 22.270 L 18.379 22.265 L 17.913 21.506 L 17.901 21.485 L 17.892 21.462 L 17.885 21.439 L 17.881 21.415 L 17.880 21.390 L 17.835 18.152 L 17.835 18.147 L 17.833 18.141 L 17.239 16.866 L 17.230 16.844 L 17.224 16.822 L 17.220 16.799 L 17.218 16.775 L 17.174 14.844 L 17.174 14.839 L 17.171 14.835 L 16.578 13.652 L 16.569 13.631 L 16.562 13.609 L 16.557 13.587 L 16.555 13.564 L 16.466 12.085 L 16.465 12.080 L 16.463 12.074 L 15.922 11.015 L 15.913 10.995 L 15.906 10.974 L 15.901 10.952 L 15.898 10.930 L 15.897 10.908 L 15.924 9.166 L 15.924 9.160 L 15.922 9.154 L 15.340 7.871 L 15.331 7.846 L 15.324 7.820 L 15.094 6.630 L 15.092 6.624 L 15.090 6.618 L 14.685 5.894 L 14.675 5.872 L 14.667 5.850 L 14.661 5.827 L 14.432 4.645 L 14.431 4.640 L 14.428 4.634 L 14.030 3.921 L 14.020 3.899 L 14.011 3.876 L 14.006 3.853 L 14.002 3.829 L 13.884 2.345 L 13.883 2.339 L 13.881 2.334 L 12.701 0.038 L 12.691 0.015 L 12.683 -0.009 L 12.678 -0.034 L 12.532 -1.050 L 12.531 -1.055 L 12.529 -1.060 L 12.045 -1.938 L 12.035 -1.960 L 12.027 -1.982 L 12.021 -2.005 L 12.018 -2.028 L 11.871 -3.695 L 11.870 -3.701 L 11.867 -3.706 L 11.379 -4.592 L 11.368 -4.615 L 11.360 -4.639 L 11.354 -4.664 L 11.161 -5.792 L 11.160 -5.798 L 11.158 -5.803 L 10.148 -7.715 L 10.138 -7.735 L 10.131 -7.755 L 10.126 -7.776 L 9.870 -9.032 L 9.869 -9.037 L 9.867 -9.042 L 8.826 -11.019 L 8.816 -11.041 L 8.809 -11.063 L 8.803 -11.087 L 8.608 -12.232 L 8.607 -12.238 L 8.604 -12.242 L 7.591 -13.519 L 7.578 -13.537 L 7.567 -13.556 L 6.882 -14.871 L 6.879 -14.877 L 6.874 -14.881 L 6.238 -15.485 L 6.222 -15.501 L 6.208 -15.520 L 6.196 -15.539 L 6.186 -15.560 L 5.912 -16.193 L 5.905 -16.214 L 5.899 -16.235 L 5.895 -16.257 L 5.894 -16.278 L 5.894 -16.300 L 5.897 -16.322 L 5.902 -16.343 L 5.909 -16.364 L 5.918 -16.384 L 5.928 -16.403 L 5.941 -16.421 L 5.955 -16.438 L 5.971 -16.453 L 5.988 -16.467 L 6.006 -16.479 L 6.026 -16.489 L 6.046 -16.497 L 6.067 -16.503 L 6.088 -16.508 L 6.110 -16.510 L 6.132 -16.510 L 6.154 -16.507 L 6.175 -16.503 L 6.196 -16.497 L 6.217 -16.489 L 6.236 -16.478 L 6.254 -16.466 L 6.271 -16.452 L 6.291 -16.435 L 6.294 -16.432 L 6.299 -16.430 L 7.151 -16.086 L 7.169 -16.078 L 7.186 -16.068 L 7.203 -16.057 L 7.218 -16.044 L 8.182 -15.169 L 8.187 -15.165 L 8.193 -15.162 L 9.136 -14.764 L 9.154 -14.755 L 9.171 -14.745 L 9.187 -14.734 L 9.202 -14.722 L 11.167 -12.914 L 11.181 -12.900 L 11.193 -12.885 L 11.205 -12.869 L 11.214 -12.852 L 12.810 -9.772 L 12.818 -9.754 L 12.825 -9.735 L 12.830 -9.716 L 12.833 -9.696 L 12.951 -8.769 L 12.952 -8.764 L 12.954 -8.760 L 14.135 -6.553 L 14.145 -6.533 L 14.152 -6.512 L 14.158 -6.491 L 14.447 -5.072 L 14.448 -5.066 L 14.452 -5.062 L 15.486 -3.860 L 15.500 -3.842 L 15.511 -3.824 L 15.521 -3.804 L 16.430 -1.764 L 16.432 -1.759 L 16.436 -1.755 L 17.432 -0.578 L 17.444 -0.563 L 17.455 -0.546 L 17.464 -0.529 L 18.529 1.724 L 18.531 1.729 L 18.534 1.732 L 19.924 3.090 L 19.938 3.105 L 19.951 3.122 L 19.962 3.139 L 19.972 3.158 L 20.482 4.267 L 20.484 4.271 L 20.488 4.275 L 22.478 6.305 L 22.495 6.324 L 22.510 6.345 L 22.522 6.367 L 23.004 7.399 L 23.007 7.404 L 23.010 7.408 L 23.801 8.294 L 23.815 8.310 L 23.826 8.328 L 23.837 8.347 L 23.845 8.367 L 23.851 8.388 L 23.856 8.409 L 23.858 8.430 L 23.949 9.827 L 23.950 9.832 L 23.952 9.837 L 24.450 10.880 L 24.453 10.886 L 24.457 10.890 L 28.647 15.118 L 28.651 15.121 L 28.655 15.124 L 29.250 15.552 L 29.255 15.555 L 29.261 15.557 L 29.927 15.772 L 29.947 15.779 L 29.967 15.789 L 29.986 15.801 L 30.003 15.814 L 30.019 15.829 L 32.574 18.440 L 32.579 18.445 L 32.584 18.448 L 33.524 18.920 L 33.528 18.922 L 33.534 18.923 L 34.437 18.999 L 34.460 19.002 L 34.482 19.007 L 34.503 19.014 L 34.524 19.024 L 34.543 19.036 L 34.561 19.049 L 34.578 19.064 L 34.839 19.325 L 34.853 19.340 L 34.865 19.357 L 34.876 19.375 L 34.886 19.393 L 35.348 20.433 L 35.350 20.437 L 35.353 20.441 L 37.412 22.561 L 37.426 22.577 L 37.439 22.594 L 37.450 22.612 L 38.182 23.977 L 38.184 23.982 L 38.188 23.986 L 42.591 28.400 L 42.607 28.418 L 42.621 28.437 L 42.633 28.458 L 43.253 29.684 L 43.256 29.689 L 43.260 29.693 L 45.899 32.369 L 45.914 32.386 L 45.928 32.405 L 45.940 32.426 L 46.560 33.652 L 46.563 33.657 L 46.567 33.662 L 48.430 35.546 L 48.447 35.564 L 48.461 35.584 L 48.473 35.605 L 49.048 36.779 L 49.051 36.784 L 49.055 36.788 L 50.426 38.207 L 50.443 38.226 L 50.457 38.246 L 50.468 38.268 L 50.973 39.335 L 50.976 39.341 L 50.979 39.345 L 51.731 40.149 L 51.745 40.165 L 51.757 40.183 L 51.768 40.201 L 52.324 41.305 L 52.327 41.311 L 52.331 41.315 L 54.649 43.537 L 54.666 43.555 L 54.681 43.576 L 54.694 43.597 L 58.261 50.610 L 58.270 50.631 L 58.278 50.654 L 58.283 50.677 L 58.455 51.767 L 58.456 51.772 L 58.458 51.778 L 60.072 55.007 L 60.075 55.012 L 60.079 55.015 L 60.904 55.753 L 60.909 55.757 L 60.914 55.759 L 61.819 56.033 L 61.824 56.034 L 61.829 56.034 L 62.947 55.931 L 62.952 55.930 L 62.957 55.927 L 63.884 55.340 L 63.888 55.337 L 63.892 55.333 L 64.448 54.558 L 64.451 54.553 L 64.453 54.548 L 64.648 53.556 L 64.649 53.551 L 64.648 53.546 L 64.530 52.802 L 64.528 52.796 L 64.526 52.790 L 64.105 52.010 L 64.096 51.991 L 64.089 51.971 L 64.083 51.951 L 64.080 51.931 L 63.868 50.250 L 63.867 50.245 L 63.865 50.240 L 63.444 49.459 L 63.435 49.440 L 63.428 49.420 L 63.422 49.399 L 63.419 49.378 L 63.332 48.653 L 63.331 48.647 L 63.329 48.641 L 62.773 47.460 L 62.764 47.437 L 62.757 47.413 L 62.487 46.206 L 62.486 46.202 L 62.484 46.197 L 61.457 44.258 L 61.447 44.235 L 61.439 44.212 L 61.434 44.187 L 61.262 43.100 L 61.261 43.094 L 61.258 43.088 L 60.134 40.951 L 60.124 40.928 L 60.116 40.905 L 60.111 40.880 L 59.939 39.793 L 59.938 39.787 L 59.935 39.781 L 58.816 37.653 L 58.806 37.631 L 58.799 37.609 L 58.793 37.586 L 58.791 37.562 L 58.635 35.220 L 58.634 35.215 L 58.632 35.209 L 56.918 31.873 L 56.909 31.855 L 56.903 31.837 L 56.898 31.817 L 56.607 30.481 L 56.606 30.476 L 56.604 30.471 L 54.937 27.343 L 54.927 27.321 L 54.919 27.299 L 54.914 27.275 L 54.718 26.130 L 54.717 26.125 L 54.715 26.119 L 53.209 23.119 L 53.205 23.113 L 53.201 23.108 L 52.259 21.998 L 52.247 21.983 L 52.237 21.967 L 52.228 21.950 L 50.508 18.397 L 50.505 18.392 L 50.501 18.387 L 49.792 17.677 L 49.778 17.662 L 49.766 17.646 L 49.755 17.630 L 49.746 17.612 L 49.279 16.601 L 49.276 16.596 L 49.273 16.592 L 48.389 15.578 L 48.375 15.559 L 48.363 15.540 L 48.352 15.519 L 47.927 14.536 L 47.925 14.532 L 47.922 14.528 L 46.478 13.035 L 46.463 13.018 L 46.450 13.000 L 46.439 12.980 L 46.430 12.959 L 46.121 12.157 L 46.119 12.153 L 46.116 12.149 L 45.250 11.154 L 45.237 11.138 L 45.226 11.121 L 45.216 11.103 L 44.684 9.993 L 44.682 9.988 L 44.678 9.983 L 43.272 8.513 L 43.255 8.494 L 43.241 8.472 L 43.229 8.449 L 42.814 7.528 L 42.812 7.523 L 42.808 7.518 L 41.943 6.524 L 41.930 6.508 L 41.919 6.491 L 41.909 6.473 L 41.377 5.363 L 41.375 5.358 L 41.371 5.353 L 40.069 3.995 L 40.054 3.978 L 40.040 3.959 L 40.029 3.939 L 39.424 2.726 L 39.421 2.721 L 39.417 2.716 L 26.213 -10.522 L 26.208 -10.526 L 26.203 -10.528 L 24.869 -11.222 L 24.852 -11.232 L 24.836 -11.243 L 24.822 -11.256 L 23.849 -12.139 L 23.845 -12.143 L 23.839 -12.145 L 22.895 -12.544 L 22.872 -12.555 L 22.850 -12.569 L 22.830 -12.585 L 21.865 -13.462 L 21.860 -13.465 L 21.855 -13.468 L 19.585 -14.527 L 19.564 -14.539 L 19.544 -14.553 L 19.525 -14.569 L 18.733 -15.322 L 18.728 -15.326 L 18.723 -15.329 L 17.622 -15.831 L 17.601 -15.842 L 17.582 -15.855 L 17.564 -15.869 L 16.573 -16.769 L 16.569 -16.773 L 16.564 -16.775 L 15.704 -17.094 L 15.682 -17.104 L 15.661 -17.116 L 15.641 -17.131 L 15.623 -17.147 L 14.732 -18.043 L 14.718 -18.059 L 14.705 -18.076 L 14.694 -18.095 L 13.930 -19.495 L 13.927 -19.500 L 13.923 -19.504 L 11.788 -21.609 L 11.773 -21.625 L 11.760 -21.643 L 11.748 -21.662 L 11.739 -21.681 L 11.731 -21.702 L 11.725 -21.724 L 11.722 -21.745 L 11.721 -21.767 L 11.721 -21.790 L 11.724 -21.811 L 11.729 -21.833 L 11.737 -21.854 L 11.746 -21.874 L 11.757 -21.893 L 11.770 -21.911 L 11.784 -21.928 L 11.800 -21.943 L 11.818 -21.956 L 11.837 -21.968 L 11.856 -21.978 L 11.877 -21.986 L 11.898 -21.992 L 11.920 -21.995 L 11.942 -21.997 L 11.964 -21.996 L 11.986 -21.994 L 12.008 -21.989 L 12.029 -21.982 L 12.049 -21.973 L 14.517 -20.738 L 14.522 -20.736 L 14.527 -20.735 L 15.700 -20.524 L 15.719 -20.520 L 15.738 -20.514 L 15.756 -20.506 L 15.773 -20.497 L 16.500 -20.077 L 16.506 -20.075 L 16.512 -20.073 L 17.683 -19.847 L 17.703 -19.842 L 17.723 -19.835 L 17.742 -19.827 L 18.689 -19.348 L 18.694 -19.346 L 18.699 -19.345 L 20.312 -19.184 L 20.335 -19.181 L 20.358 -19.175 L 20.380 -19.166 L 20.401 -19.156 L 21.073 -18.773 L 21.078 -18.771 L 21.084 -18.769 L 22.313 -18.524 L 22.333 -18.519 L 22.353 -18.512 L 22.371 -18.504 L 23.319 -18.025 L 23.324 -18.023 L 23.329 -18.022 L 24.883 -17.859 L 24.903 -17.856 L 24.922 -17.852 L 24.940 -17.846 L 27.948 -16.702 L 27.954 -16.700 L 27.960 -16.700 L 29.333 -16.641 L 29.357 -16.639 L 29.380 -16.634 L 29.403 -16.627 L 29.426 -16.617 L 30.458 -16.095 L 30.463 -16.092 L 30.468 -16.092 L 31.933 -15.971 L 31.957 -15.968 L 31.980 -15.962 L 32.003 -15.954 L 32.024 -15.943 L 32.766 -15.534 L 32.772 -15.532 L 32.777 -15.530 L 33.929 -15.312 L 33.953 -15.306 L 33.976 -15.298 L 33.999 -15.287 L 34.679 -14.899 L 34.684 -14.897 L 34.690 -14.895 L 35.848 -14.649 L 35.873 -14.642 L 35.896 -14.633 L 36.736 -14.245 L 36.741 -14.243 L 36.746 -14.243 L 37.760 -14.171 L 37.767 -14.170 L 37.773 -14.172 L 38.719 -14.424 L 38.742 -14.429 L 38.765 -14.431 L 38.789 -14.431 L 38.812 -14.429 L 38.836 -14.424 L 40.461 -13.989 L 40.485 -13.981 L 40.508 -13.971 L 42.466 -12.939 L 42.471 -12.936 L 42.476 -12.935 L 43.762 -12.666 L 43.782 -12.661 L 43.801 -12.654 L 43.820 -12.645 L 45.736 -11.650 L 45.742 -11.648 L 45.748 -11.646 L 46.500 -11.442 L 46.504 -11.441 L 46.509 -11.440 L 47.503 -11.436 L 47.525 -11.435 L 47.547 -11.431 L 47.569 -11.426 L 47.590 -11.418 L 47.611 -11.408 L 48.357 -10.999 L 48.362 -10.996 L 48.368 -10.995 L 49.484 -10.775 L 49.507 -10.769 L 49.530 -10.760 L 49.551 -10.750 L 50.335 -10.308 L 50.339 -10.306 L 50.344 -10.305 L 51.417 -10.130 L 51.442 -10.124 L 51.467 -10.115 L 51.490 -10.104 L 52.318 -9.648 L 52.323 -9.645 L 52.329 -9.643 L 53.452 -9.451 L 53.475 -9.446 L 53.499 -9.438 L 53.521 -9.427 L 55.467 -8.379 L 55.472 -8.377 L 55.477 -8.376 L 56.705 -8.131 L 56.726 -8.125 L 56.747 -8.118 L 56.766 -8.109 L 58.613 -7.141 L 58.617 -7.139 L 58.621 -7.138 L 60.025 -6.806 L 60.044 -6.801 L 60.063 -6.794 L 61.134 -6.335 L 61.152 -6.326 L 65.725 -3.866 L 65.730 -3.863 L 65.735 -3.862 L 67.053 -3.594 L 67.077 -3.587 L 67.099 -3.579 L 67.121 -3.568 L 67.141 -3.555 L 67.160 -3.540 L 67.993 -2.791 L 67.998 -2.787 L 68.004 -2.784 L 68.924 -2.406 L 68.942 -2.397 L 68.959 -2.388 L 68.976 -2.376 L 68.991 -2.364 L 69.978 -1.467 L 69.982 -1.464 L 69.987 -1.462 L 70.846 -1.142 L 70.869 -1.132 L 70.890 -1.120 L 70.911 -1.105 L 70.929 -1.088 L 74.662 2.738 L 74.667 2.743 L 74.672 2.747 L 75.562 3.297 L 75.567 3.300 L 75.573 3.301 L 76.580 3.417 L 76.586 3.418 L 76.592 3.417 L 77.509 3.225 L 77.514 3.223 L 77.519 3.220 L 78.235 2.722 L 78.239 2.719 L 78.242 2.715 L 78.757 1.924 L 78.760 1.919 L 78.761 1.914 L 78.913 1.113 L 78.914 1.107 L 78.913 1.102 L 78.828 0.274 L 78.827 0.269 L 78.825 0.263 L 77.597 -1.938 L 77.594 -1.943 L 77.591 -1.946 L 72.171 -7.370 L 72.168 -7.373 L 72.164 -7.376 L 71.568 -7.804 L 71.564 -7.807 L 71.558 -7.809 L 70.892 -8.024 L 70.872 -8.031 L 70.852 -8.041 L 70.833 -8.053 L 70.816 -8.066 L 70.800 -8.081 L 67.582 -11.355 L 67.579 -11.358 L 67.574 -11.360 L 66.453 -11.881 L 66.431 -11.893 L 66.410 -11.908 L 66.390 -11.924 L 64.938 -13.338 L 64.933 -13.342 L 64.927 -13.345 L 63.802 -13.868 L 63.783 -13.878 L 63.765 -13.890 L 63.748 -13.903 L 62.686 -14.840 L 62.682 -14.843 L 62.677 -14.845 L 61.854 -15.167 L 61.833 -15.177 L 61.813 -15.188 L 61.794 -15.202 L 61.777 -15.217 L 60.390 -16.578 L 60.386 -16.581 L 60.382 -16.583 L 59.252 -17.104 L 59.230 -17.116 L 59.209 -17.130 L 59.190 -17.146 L 57.669 -18.600 L 57.666 -18.603 L 57.661 -18.605 L 56.627 -19.063 L 56.610 -19.071 L 56.593 -19.081 L 56.577 -19.093 L 56.563 -19.106 L 55.772 -19.858 L 55.767 -19.862 L 55.762 -19.865 L 54.645 -20.385 L 54.625 -20.396 L 54.607 -20.408 L 54.589 -20.422 L 53.613 -21.305 L 53.608 -21.308 L 53.603 -21.310 L 52.739 -21.632 L 52.719 -21.640 L 52.699 -21.651 L 52.681 -21.663 L 52.664 -21.677 L 51.628 -22.627 L 51.624 -22.631 L 51.619 -22.633 L 50.760 -22.953 L 50.737 -22.962 L 50.716 -22.974 L 50.696 -22.989 L 50.678 -23.005 L 49.833 -23.856 L 49.829 -23.859 L 49.824 -23.861 L 47.548 -24.924 L 47.530 -24.933 L 47.513 -24.944 L 47.497 -24.957 L 46.339 -25.946 L 46.335 -25.949 L 46.331 -25.951 L 41.668 -28.154 L 41.651 -28.163 L 41.635 -28.174 L 41.620 -28.186 L 40.290 -29.299 L 40.286 -29.302 L 40.280 -29.303 L 39.009 -29.570 L 38.989 -29.575 L 38.970 -29.582 L 38.952 -29.590 L 35.711 -31.248 L 35.707 -31.250 L 35.702 -31.251 L 34.372 -31.555 L 34.350 -31.562 L 34.328 -31.571 L 33.280 -32.054 L 33.275 -32.056 L 33.269 -32.057 L 32.521 -32.152 L 32.501 -32.156 L 32.482 -32.161 L 32.464 -32.167 L 32.446 -32.175 L 31.579 -32.620 L 31.574 -32.623 L 31.568 -32.624 L 30.585 -32.794 L 30.561 -32.800 L 30.537 -32.808 L 30.515 -32.819 L 29.784 -33.222 L 29.780 -33.224 L 29.774 -33.225 L 27.977 -33.441 L 27.954 -33.445 L 27.932 -33.452 L 27.910 -33.460 L 26.740 -33.990 L 26.735 -33.992 L 26.730 -33.993 L 24.752 -34.095 L 24.727 -34.097 L 24.703 -34.102 L 24.680 -34.110 L 24.658 -34.120 L 23.736 -34.605 L 23.731 -34.607 L 23.726 -34.608 L 22.121 -34.765 L 22.097 -34.768 L 22.073 -34.775 L 22.050 -34.784 L 20.882 -35.313 L 20.877 -35.315 L 20.872 -35.316 L 18.814 -35.428 L 18.790 -35.430 L 18.765 -35.436 L 18.742 -35.444 L 17.362 -36.001 L 17.357 -36.003 L 17.352 -36.003 L -3.663 -35.993 L -3.669 -35.992 L -3.674 -35.990 L -4.941 -35.444 L -4.964 -35.436 L -4.987 -35.430 L -6.224 -35.183 L -6.229 -35.182 L -6.234 -35.180 L -8.239 -34.128 L -8.260 -34.118 L -8.282 -34.111 L -8.305 -34.106 L -9.371 -33.916 L -9.377 -33.914 L -9.383 -33.911 L -10.163 -33.472 L -10.186 -33.461 L -10.210 -33.452 L -10.236 -33.446 L -11.357 -33.254 L -11.362 -33.253 L -11.367 -33.251 L -12.394 -32.754 L -12.413 -32.746 L -12.432 -32.740 L -12.452 -32.735 L -12.473 -32.732 L -12.493 -32.731 L -15.286 -32.731 L -15.306 -32.732 L -15.327 -32.735 L -15.347 -32.740 L -15.367 -32.746 L -15.386 -32.755 L -17.736 -33.912 L -17.741 -33.914 L -17.745 -33.915 L -18.742 -34.022 L -18.764 -34.025 L -18.786 -34.031 L -18.807 -34.039 L -18.827 -34.048 L -18.847 -34.060 L -18.864 -34.074 L -18.881 -34.089 L -18.896 -34.106 L -18.909 -34.124 L -18.920 -34.144 L -18.929 -34.164 L -18.936 -34.186 L -18.941 -34.208 L -18.944 -34.230 L -18.945 -34.252 L -18.943 -34.275 L -18.939 -34.297 L -18.933 -34.319 L -18.925 -34.340 L -18.915 -34.360 L -18.903 -34.379 L -18.889 -34.396 L -18.873 -34.412 L -18.856 -34.427 L -18.838 -34.440 L -18.818 -34.451 L -13.482 -37.071 L -13.476 -37.075 L -13.470 -37.079 L -12.171 -38.167 L -12.156 -38.178 L -12.140 -38.188 L -12.124 -38.197 L -6.393 -40.946 L -6.389 -40.949 L -6.385 -40.951 L -5.791 -41.374 L -5.772 -41.385 L -5.753 -41.395 L -4.519 -41.955 L -4.495 -41.964 L -4.469 -41.971 L -3.184 -42.224 L -3.179 -42.226 L -3.174 -42.228 L 1.250 -44.488 L 1.269 -44.496 L 1.289 -44.503 L 1.310 -44.508 L 2.481 -44.735 L 2.486 -44.736 L 2.491 -44.738 L 4.459 -45.808 L 4.481 -45.818 L 4.503 -45.826 L 4.527 -45.832 L 5.787 -46.057 L 5.793 -46.059 L 5.799 -46.061 L 7.768 -47.132 L 7.788 -47.141 L 7.810 -47.149 L 7.832 -47.155 L 9.059 -47.399 L 9.064 -47.401 L 9.068 -47.403 L 10.953 -48.359 L 10.973 -48.368 L 10.994 -48.375 L 14.089 -49.262 L 14.095 -49.264 L 14.100 -49.267 L 14.840 -49.675 L 14.863 -49.685 L 14.886 -49.694 L 14.910 -49.699 L 14.935 -49.702 L 17.102 -49.839 L 17.108 -49.840 L 17.114 -49.842 L 18.449 -50.402 L 18.469 -50.409 L 18.489 -50.414 L 18.510 -50.418 L 18.531 -50.419 L 21.721 -50.490 L 21.738 -50.489 L 21.755 -50.488 L 22.885 -50.344 L 22.890 -50.344 L 22.895 -50.344 L 24.133 -50.637 L 24.139 -50.638 L 24.143 -50.641 L 25.213 -51.558 L 25.217 -51.563 L 25.219 -51.568 L 25.616 -52.751 L 25.617 -52.756 L 25.616 -52.762 L 25.383 -54.078 L 25.382 -54.083 L 25.379 -54.087 L 24.415 -55.131 L 24.412 -55.135 L 24.407 -55.136 L 22.860 -55.576 L 22.854 -55.578 L 22.849 -55.578 L 11.278 -55.468 L 11.273 -55.467 L 11.268 -55.466 L 9.708 -54.857 L 9.689 -54.850 L 9.668 -54.845 L 9.648 -54.843 L 9.627 -54.841 L 2.869 -54.806 L 2.863 -54.806 L 2.858 -54.804 L 1.473 -54.245 L 1.453 -54.238 L 1.433 -54.233 L 1.413 -54.230 L -0.301 -54.041 L -0.307 -54.040 L -0.312 -54.038 L -1.124 -53.590 L -1.144 -53.580 L -1.165 -53.572 L -1.187 -53.566 L -1.210 -53.563 L -1.232 -53.562 L -2.911 -53.554 L -2.916 -53.554 L -2.921 -53.553 L -3.808 -53.304 L -3.813 -53.302 L -3.818 -53.299 L -4.371 -52.942 L -4.390 -52.931 L -4.410 -52.922 L -4.430 -52.915 L -4.451 -52.910 L -4.472 -52.907 L -4.494 -52.906 L -5.459 -52.906 L -5.464 -52.906 L -5.469 -52.905 L -6.221 -52.701 L -6.227 -52.699 L -6.232 -52.696 L -8.144 -51.703 L -8.166 -51.693 L -8.188 -51.686 L -8.211 -51.681 L -9.175 -51.521 L -9.180 -51.520 L -9.185 -51.518 L -10.134 -51.039 L -10.152 -51.031 L -10.170 -51.024 L -10.189 -51.019 L -11.477 -50.750 L -11.482 -50.749 L -11.486 -50.747 L -16.007 -48.413 L -16.025 -48.405 L -16.045 -48.398 L -16.064 -48.393 L -17.414 -48.106 L -17.420 -48.105 L -17.424 -48.102 L -18.715 -47.036 L -18.731 -47.024 L -18.747 -47.014 L -18.765 -47.005 L -21.005 -45.972 L -21.010 -45.969 L -21.014 -45.966 L -21.980 -45.089 L -22.000 -45.073 L -22.021 -45.059 L -22.044 -45.048 L -22.988 -44.649 L -22.994 -44.646 L -22.999 -44.642 L -23.972 -43.759 L -23.986 -43.747 L -24.002 -43.736 L -24.018 -43.727 L -25.391 -42.998 L -25.396 -42.995 L -25.401 -42.991 L -28.236 -40.096 L -28.241 -40.091 L -28.244 -40.085 L -29.380 -37.641 L -29.390 -37.622 L -29.402 -37.604 L -29.415 -37.587 L -29.430 -37.571 L -29.446 -37.557 L -29.464 -37.545 L -29.482 -37.534 L -33.270 -35.601 L -33.290 -35.592 L -33.310 -35.585 L -33.331 -35.580 L -33.353 -35.577 L -33.374 -35.576 L -33.396 -35.577 L -33.417 -35.580 L -33.439 -35.585 L -33.459 -35.593 L -34.394 -35.975 L -34.399 -35.977 L -34.404 -35.977 L -36.061 -36.003 L -36.066 -36.003 L -36.071 -36.001 L -37.727 -35.391 L -37.745 -35.385 L -37.765 -35.380 L -37.784 -35.378 L -37.804 -35.377 L -42.581 -35.342 L -42.586 -35.341 L -42.590 -35.340 L -44.247 -34.729 L -44.272 -34.722 L -44.297 -34.717 L -44.323 -34.715 L -47.884 -34.670 L -47.889 -34.669 L -47.894 -34.668 L -49.169 -34.121 L -49.191 -34.113 L -49.214 -34.107 L -49.238 -34.104 L -51.709 -33.879 L -51.715 -33.878 L -51.719 -33.875 L -53.061 -32.824 L -53.080 -32.811 L -53.101 -32.799 L -53.122 -32.790 L -53.145 -32.783 L -53.168 -32.779 L -53.191 -32.776 L -54.649 -32.715 L -54.659 -32.715 L -60.079 -32.731 L -60.102 -32.733 L -60.125 -32.736 L -60.147 -32.742 L -60.169 -32.750 L -61.512 -33.329 L -61.517 -33.331 L -61.522 -33.331 L -63.960 -33.392 L -63.980 -33.393 L -63.999 -33.396 L -64.018 -33.401 L -64.037 -33.407 L -65.586 -34.007 L -65.591 -34.008 L -65.596 -34.008 L -68.587 -34.054 L -68.608 -34.055 L -68.629 -34.058 L -68.650 -34.063 L -68.670 -34.071 L -70.121 -34.668 L -70.126 -34.669 L -70.132 -34.670 L -76.993 -34.715 L -77.016 -34.717 L -77.038 -34.720 L -77.060 -34.726 L -77.082 -34.734 L -78.311 -35.266 Z M 1.874 -27.693 L 1.878 -27.695 L 3.125 -28.232 L 3.147 -28.240 L 3.169 -28.246 L 3.192 -28.249 L 3.215 -28.250 L 3.491 -28.250 L 3.515 -28.249 L 3.539 -28.245 L 3.563 -28.238 L 3.586 -28.229 L 4.687 -27.719 L 4.705 -27.709 L 4.722 -27.699 L 4.738 -27.686 L 4.753 -27.673 L 8.094 -24.298 L 8.098 -24.295 L 8.102 -24.292 L 10.428 -23.202 L 10.448 -23.191 L 10.467 -23.179 L 10.484 -23.165 L 11.180 -22.535 L 11.196 -22.519 L 11.210 -22.502 L 11.222 -22.483 L 11.233 -22.463 L 11.241 -22.442 L 11.248 -22.421 L 11.252 -22.399 L 11.254 -22.376 L 11.254 -22.354 L 11.252 -22.331 L 11.247 -22.309 L 11.240 -22.288 L 11.231 -22.267 L 11.220 -22.248 L 11.208 -22.229 L 11.193 -22.212 L 11.177 -22.196 L 11.159 -22.182 L 11.140 -22.170 L 11.120 -22.160 L 11.099 -22.152 L 11.078 -22.146 L 11.055 -22.142 L 11.033 -22.140 L 11.010 -22.141 L 10.988 -22.144 L 10.966 -22.149 L 10.945 -22.156 L 10.924 -22.165 L 7.140 -24.101 L 7.135 -24.103 L 7.130 -24.105 L 3.907 -25.027 L 3.886 -25.034 L 3.867 -25.043 L 3.848 -25.053 L 3.831 -25.066 L 2.510 -26.084 L 2.505 -26.087 L 2.500 -26.089 L 1.212 -26.358 L 1.194 -26.363 L 1.175 -26.369 L 1.158 -26.377 L -0.480 -27.194 L -0.499 -27.205 L -0.517 -27.217 L -0.534 -27.232 L -0.550 -27.248 L -0.564 -27.265 L -0.575 -27.284 L -0.586 -27.304 L -0.594 -27.325 L -0.600 -27.346 L -0.604 -27.368 L -0.605 -27.390 L -0.605 -27.412 L -0.602 -27.434 L -0.597 -27.456 L -0.591 -27.477 L -0.582 -27.498 L -0.571 -27.517 L -0.558 -27.535 L -0.544 -27.552 L -0.528 -27.568 L -0.510 -27.581 L -0.491 -27.593 L -0.472 -27.604 L -0.451 -27.612 L -0.430 -27.618 L -0.408 -27.622 L -0.386 -27.623 L 1.868 -27.692 Z M -48.033 -26.055 L -48.042 -26.075 L -48.048 -26.096 L -48.053 -26.117 L -48.056 -26.139 L -48.057 -26.161 L -48.056 -26.182 L -48.052 -26.204 L -48.046 -26.225 L -48.039 -26.246 L -48.029 -26.265 L -48.018 -26.284 L -48.005 -26.302 L -47.990 -26.318 L -47.974 -26.333 L -47.956 -26.346 L -47.937 -26.357 L -47.918 -26.366 L -47.897 -26.374 L -47.876 -26.379 L -47.854 -26.383 L -47.832 -26.384 L -47.811 -26.383 L -47.265 -26.335 L -47.242 -26.332 L -47.220 -26.327 L -47.198 -26.319 L -47.178 -26.310 L -47.158 -26.298 L -47.140 -26.284 L -47.123 -26.269 L -46.165 -25.296 L -46.150 -25.280 L -46.137 -25.262 L -46.126 -25.243 L -46.117 -25.223 L -46.109 -25.202 L -46.104 -25.181 L -46.101 -25.159 L -46.100 -25.137 L -46.101 -25.115 L -46.104 -25.093 L -46.109 -25.072 L -46.117 -25.051 L -46.126 -25.031 L -46.137 -25.012 L -46.150 -24.994 L -46.165 -24.978 L -46.181 -24.963 L -46.199 -24.950 L -46.218 -24.938 L -46.237 -24.928 L -46.258 -24.921 L -46.279 -24.915 L -46.301 -24.912 L -46.323 -24.910 L -46.345 -24.911 L -46.655 -24.937 L -46.661 -24.937 L -46.666 -24.936 L -47.394 -24.691 L -47.415 -24.685 L -47.436 -24.682 L -47.458 -24.680 L -47.480 -24.680 L -47.502 -24.682 L -47.523 -24.687 L -47.544 -24.693 L -47.564 -24.702 L -47.583 -24.712 L -47.601 -24.724 L -47.618 -24.738 L -47.633 -24.753 L -47.647 -24.770 L -47.660 -24.788 L -47.670 -24.807 L -47.679 -24.827 L -47.685 -24.848 L -47.690 -24.869 L -47.817 -25.624 L -47.818 -25.629 L -47.820 -25.635 Z M -47.696 -19.094 L -47.695 -19.116 L -47.692 -19.139 L -47.686 -19.161 L -47.679 -19.182 L -47.669 -19.202 L -47.658 -19.222 L -47.644 -19.240 L -47.629 -19.257 L -47.612 -19.272 L -47.594 -19.285 L -47.574 -19.296 L -47.553 -19.306 L -47.532 -19.313 L -47.510 -19.318 L -47.488 -19.321 L -47.465 -19.322 L -47.442 -19.320 L -47.420 -19.317 L -47.398 -19.311 L -47.377 -19.302 L -47.357 -19.292 L -47.338 -19.280 L -47.320 -19.266 L -47.304 -19.250 L -46.950 -18.873 L -46.936 -18.857 L -46.924 -18.839 L -46.913 -18.820 L -46.904 -18.801 L -46.898 -18.780 L -46.893 -18.759 L -46.890 -18.738 L -46.889 -18.717 L -46.892 -18.241 L -46.893 -18.219 L -46.896 -18.197 L -46.902 -18.176 L -46.909 -18.155 L -46.918 -18.135 L -46.930 -18.116 L -46.943 -18.099 L -46.958 -18.082 L -46.974 -18.068 L -46.991 -18.054 L -47.010 -18.043 L -47.030 -18.033 L -47.051 -18.026 L -47.072 -18.020 L -47.094 -18.017 L -47.116 -18.016 L -47.138 -18.016 L -47.159 -18.019 L -47.181 -18.024 L -47.202 -18.031 L -47.222 -18.040 L -47.241 -18.051 L -47.259 -18.064 L -47.275 -18.079 L -47.290 -18.095 L -47.304 -18.112 L -47.316 -18.131 L -47.665 -18.748 L -47.676 -18.768 L -47.684 -18.790 L -47.690 -18.812 L -47.693 -18.835 L -47.695 -18.858 Z"/>
</svg>
