<svg xmlns="http://www.w3.org/2000/svg" viewBox="0 0 55.000 55.000" width="55.000mm" height="55.000mm">
<rect x="0" y="0" width="55.000" height="55.000" fill="#ffffff"/>
<path id="gobo_28" d="M 34.070,3.386 L 33.575,3.249 L 32.377,2.980 L 31.168,2.771 L 29.950,2.620 L 28.727,2.530 L 27.500,2.500 L 26.273,2.530 L 25.050,2.620 L 23.832,2.771 L 22.623,2.980 L 21.425,3.249 L 20.243,3.576 L 19.078,3.961 L 17.933,4.403 L 16.811,4.900 L 15.715,5.452 L 14.647,6.057 L 13.611,6.713 L 12.608,7.420 L 11.640,8.175 L 10.711,8.976 L 9.822,9.822 L 8.976,10.711 L 8.175,11.640 L 7.420,12.608 L 6.713,13.611 L 6.057,14.647 L 5.452,15.715 L 4.900,16.811 L 4.403,17.933 L 3.961,19.078 L 3.576,20.243 L 3.249,21.425 L 2.980,22.623 L 2.771,23.832 L 2.620,25.050 L 2.530,26.273 L 2.500,27.500 L 2.530,28.727 L 2.620,29.950 L 2.771,31.168 L 2.980,32.377 L 3.249,33.575 L 3.576,34.757 L 3.961,35.922 L 4.403,37.067 L 4.900,38.189 L 5.452,39.285 L 6.057,40.353 L 6.713,41.389 L 7.420,42.392 L 8.175,43.360 L 8.976,44.289 L 9.822,45.178 L 10.711,46.024 L 11.640,46.825 L 12.608,47.580 L 13.611,48.287 L 14.647,48.943 L 15.715,49.548 L 16.811,50.100 L 17.933,50.597 L 19.078,51.039 L 20.243,51.424 L 21.425,51.751 L 22.623,52.020 L 23.832,52.229 L 25.050,52.380 L 26.273,52.470 L 27.500,52.500 L 28.727,52.470 L 29.950,52.380 L 31.168,52.229 L 32.377,52.020 L 33.575,51.751 L 34.757,51.424 L 35.922,51.039 L 37.067,50.597 L 38.189,50.100 L 39.285,49.548 L 40.353,48.943 L 41.389,48.287 L 42.392,47.580 L 43.360,46.825 L 44.289,46.024 L 45.178,45.178 L 46.024,44.289 L 46.825,43.360 L 47.580,42.392 L 48.287,41.389 L 48.943,40.353 L 49.548,39.285 L 50.100,38.189 L 50.597,37.067 L 51.039,35.922 L 51.424,34.757 L 51.751,33.575 L 52.020,32.377 L 52.229,31.168 L 52.380,29.950 L 52.470,28.727 L 52.500,27.500 L 52.470,26.273 L 52.380,25.050 L 52.229,23.832 L 52.020,22.623 L 51.751,21.425 L 51.424,20.243 L 51.039,19.078 L 50.597,17.933 L 50.100,16.811 L 49.548,15.715 L 48.943,14.647 L 48.287,13.611 L 47.580,12.608 L 46.825,11.640 L 46.024,10.711 L 45.178,9.822 L 44.289,8.976 L 43.360,8.175 L 42.392,7.420 L 41.389,6.713 L 40.353,6.057 L 39.285,5.452 L 38.189,4.900 L 37.067,4.403 L 35.922,3.961 L 34.757,3.576 L 34.070,3.386 L 34.070,3.386 Z M 34.825,7.168 L 34.892,7.529 L 34.956,7.891 L 35.015,8.254 L 35.071,8.617 L 35.124,8.981 L 35.173,9.345 L 35.220,9.710 L 35.266,10.075 L 35.312,10.440 L 35.360,10.804 L 35.416,11.168 L 35.486,11.528 L 35.590,11.883 L 35.587,12.123 L 35.380,12.061 L 35.027,11.951 L 34.674,11.838 L 34.321,11.722 L 33.970,11.604 L 33.733,11.523 L 33.479,10.801 L 33.025,10.662 L 32.571,10.524 L 32.140,10.450 L 31.721,10.412 L 31.311,10.399 L 30.909,10.407 L 30.514,10.434 L 30.124,10.479 L 29.741,10.540 L 29.363,10.618 L 28.991,10.712 L 28.625,10.823 L 28.265,10.950 L 27.911,11.093 L 27.562,11.253 L 27.219,11.430 L 26.882,11.623 L 26.551,11.832 L 26.226,12.060 L 25.908,12.306 L 25.597,12.573 L 25.295,12.865 L 25.006,13.193 L 24.740,13.586 L 24.473,13.979 L 24.759,14.787 L 25.140,14.722 L 25.523,14.658 L 25.890,14.551 L 26.251,14.426 L 26.608,14.290 L 26.963,14.148 L 27.318,14.004 L 27.672,13.860 L 28.027,13.718 L 28.383,13.579 L 28.740,13.443 L 29.099,13.311 L 29.459,13.184 L 29.821,13.062 L 30.184,12.943 L 30.548,12.828 L 30.914,12.716 L 31.280,12.606 L 31.646,12.496 L 32.011,12.383 L 32.375,12.265 L 32.599,12.185 L 32.934,12.303 L 32.936,12.304 L 33.290,12.428 L 33.292,12.429 L 33.647,12.550 L 33.650,12.551 L 34.004,12.670 L 34.008,12.671 L 34.363,12.788 L 34.367,12.789 L 34.724,12.904 L 34.727,12.905 L 35.085,13.016 L 35.089,13.017 L 35.447,13.126 L 35.451,13.127 L 35.811,13.232 L 35.815,13.233 L 36.175,13.335 L 36.180,13.337 L 36.541,13.435 L 36.546,13.436 L 36.908,13.532 L 36.912,13.533 L 37.275,13.625 L 37.280,13.626 L 37.644,13.714 L 37.649,13.715 L 38.013,13.800 L 38.018,13.801 L 38.384,13.882 L 38.388,13.883 L 38.755,13.961 L 38.759,13.962 L 39.126,14.036 L 39.131,14.037 L 39.498,14.107 L 39.503,14.108 L 39.871,14.175 L 39.875,14.176 L 40.244,14.240 L 40.248,14.241 L 40.618,14.302 L 40.622,14.303 L 40.992,14.361 L 40.995,14.362 L 41.366,14.417 L 41.369,14.418 L 41.740,14.471 L 41.743,14.471 L 42.114,14.522 L 42.117,14.522 L 42.482,14.570 L 42.273,14.707 L 41.704,14.812 L 41.178,14.953 L 40.677,15.117 L 40.199,15.299 L 39.740,15.499 L 39.302,15.716 L 38.886,15.951 L 38.493,16.206 L 38.124,16.482 L 37.779,16.779 L 37.461,17.098 L 37.169,17.440 L 36.904,17.804 L 36.664,18.190 L 36.449,18.598 L 36.259,19.027 L 36.091,19.474 L 35.945,19.941 L 35.820,20.425 L 35.715,20.926 L 35.631,21.446 L 35.574,21.988 L 35.559,22.566 L 35.366,22.992 L 36.018,23.549 L 36.291,23.192 L 36.693,22.944 L 37.068,22.673 L 37.427,22.389 L 37.777,22.097 L 38.119,21.798 L 38.454,21.493 L 38.782,21.182 L 39.103,20.865 L 39.418,20.543 L 39.725,20.214 L 40.024,19.879 L 40.316,19.537 L 40.600,19.189 L 40.877,18.834 L 41.147,18.473 L 41.409,18.107 L 41.665,17.734 L 41.914,17.356 L 42.156,16.971 L 42.390,16.580 L 42.614,16.180 L 42.824,15.768 L 43.006,15.333 L 43.316,15.007 L 42.860,14.617 L 42.862,14.617 L 42.864,14.618 L 43.236,14.662 L 43.238,14.663 L 43.610,14.706 L 43.611,14.706 L 43.983,14.749 L 43.984,14.749 L 44.356,14.790 L 44.357,14.790 L 44.729,14.831 L 45.102,14.872 L 45.151,14.875 L 45.200,14.873 L 45.248,14.867 L 45.296,14.855 L 45.342,14.839 L 45.387,14.819 L 45.429,14.794 L 45.444,14.783 L 45.792,15.277 L 46.370,16.190 L 46.902,17.129 L 47.388,18.094 L 47.825,19.081 L 48.214,20.088 L 48.553,21.114 L 48.841,22.154 L 49.077,23.208 L 49.262,24.272 L 49.394,25.344 L 49.474,26.421 L 49.500,27.500 L 49.474,28.579 L 49.394,29.656 L 49.262,30.728 L 49.077,31.792 L 48.841,32.846 L 48.553,33.886 L 48.214,34.912 L 47.825,35.919 L 47.388,36.906 L 46.902,37.871 L 46.370,38.810 L 45.792,39.723 L 45.171,40.605 L 44.506,41.457 L 43.801,42.274 L 43.056,43.056 L 42.274,43.801 L 41.457,44.506 L 40.605,45.171 L 39.723,45.792 L 38.810,46.370 L 37.871,46.902 L 36.906,47.388 L 35.919,47.825 L 34.912,48.214 L 33.886,48.553 L 32.846,48.841 L 31.792,49.077 L 30.728,49.262 L 29.656,49.394 L 28.579,49.474 L 27.500,49.500 L 26.421,49.474 L 25.344,49.394 L 24.272,49.262 L 23.208,49.077 L 22.154,48.841 L 21.114,48.553 L 20.088,48.214 L 19.081,47.825 L 18.094,47.388 L 17.129,46.902 L 16.190,46.370 L 15.277,45.792 L 14.404,45.177 L 14.321,45.032 L 14.047,44.555 L 13.778,44.075 L 13.517,43.593 L 13.269,43.106 L 13.034,42.614 L 12.816,42.116 L 12.615,41.612 L 12.431,41.102 L 12.265,40.585 L 12.116,40.063 L 11.983,39.534 L 11.864,39.001 L 11.757,38.463 L 11.659,37.921 L 11.566,37.379 L 11.472,36.836 L 11.368,36.297 L 11.241,35.766 L 11.055,35.257 L 10.990,35.191 L 11.159,35.229 L 11.596,35.327 L 12.033,35.429 L 12.468,35.532 L 12.903,35.638 L 13.337,35.747 L 13.771,35.859 L 14.203,35.974 L 14.329,36.008 L 14.321,36.051 L 14.920,36.666 L 15.673,36.810 L 16.239,36.762 L 16.620,36.672 L 16.781,36.722 L 17.208,36.857 L 17.634,36.994 L 18.059,37.134 L 18.484,37.277 L 18.908,37.422 L 19.331,37.569 L 19.754,37.718 L 20.176,37.869 L 20.598,38.022 L 21.020,38.177 L 21.442,38.333 L 21.863,38.490 L 22.284,38.648 L 22.705,38.807 L 23.126,38.966 L 23.548,39.126 L 23.594,39.141 L 23.642,39.151 L 23.691,39.157 L 23.740,39.158 L 23.789,39.154 L 23.837,39.145 L 23.884,39.132 L 23.930,39.114 L 23.974,39.092 L 24.015,39.065 L 24.054,39.035 L 24.089,39.001 L 24.121,38.963 L 24.149,38.923 L 24.173,38.880 L 24.192,38.835 L 24.207,38.789 L 24.218,38.741 L 24.224,38.692 L 24.225,38.643 L 24.221,38.594 L 24.212,38.546 L 24.199,38.498 L 24.181,38.453 L 24.158,38.409 L 24.132,38.368 L 24.101,38.329 L 24.067,38.294 L 24.030,38.262 L 23.990,38.234 L 23.947,38.210 L 23.902,38.191 L 23.480,38.031 L 23.059,37.871 L 23.058,37.871 L 22.636,37.712 L 22.636,37.712 L 22.214,37.553 L 22.213,37.553 L 21.790,37.395 L 21.789,37.395 L 21.366,37.239 L 21.365,37.238 L 20.942,37.083 L 20.940,37.082 L 20.516,36.929 L 20.514,36.928 L 20.090,36.776 L 20.088,36.775 L 19.663,36.625 L 19.661,36.625 L 19.235,36.477 L 19.232,36.476 L 18.806,36.330 L 18.803,36.329 L 18.376,36.186 L 18.373,36.185 L 18.093,36.093 L 18.460,35.894 L 18.845,35.661 L 19.216,35.412 L 19.573,35.149 L 19.915,34.871 L 20.244,34.579 L 20.558,34.272 L 20.859,33.952 L 21.146,33.617 L 21.419,33.267 L 21.677,32.903 L 21.921,32.524 L 22.149,32.128 L 22.360,31.715 L 22.551,31.282 L 22.717,30.823 L 22.847,30.327 L 22.911,29.763 L 22.786,29.006 L 22.188,28.391 L 21.649,28.468 L 21.243,28.680 L 20.882,28.939 L 20.543,29.220 L 20.215,29.513 L 19.896,29.814 L 19.580,30.120 L 19.268,30.429 L 18.956,30.738 L 18.645,31.048 L 18.332,31.357 L 18.019,31.664 L 17.704,31.971 L 17.388,32.276 L 17.071,32.580 L 16.753,32.883 L 16.436,33.186 L 16.119,33.491 L 15.805,33.797 L 15.495,34.109 L 15.193,34.428 L 14.904,34.761 L 14.673,35.065 L 14.464,35.008 L 14.461,35.007 L 14.025,34.892 L 14.022,34.891 L 13.585,34.779 L 13.582,34.778 L 13.145,34.668 L 13.142,34.667 L 12.704,34.560 L 12.701,34.560 L 12.263,34.455 L 12.260,34.455 L 11.821,34.353 L 11.818,34.352 L 11.378,34.253 L 11.376,34.252 L 10.936,34.155 L 10.933,34.155 L 10.493,34.060 L 10.491,34.059 L 10.050,33.966 L 10.048,33.966 L 9.606,33.875 L 9.604,33.874 L 9.163,33.785 L 9.161,33.784 L 8.719,33.696 L 8.718,33.696 L 8.276,33.609 L 8.275,33.608 L 7.832,33.522 L 7.831,33.522 L 7.389,33.436 L 7.388,33.436 L 6.946,33.351 L 6.503,33.266 L 6.454,33.259 L 6.405,33.257 L 6.356,33.260 L 6.308,33.268 L 6.278,33.275 L 6.159,32.846 L 5.923,31.792 L 5.738,30.728 L 5.606,29.656 L 5.526,28.579 L 5.500,27.500 L 5.526,26.421 L 5.606,25.344 L 5.738,24.272 L 5.923,23.208 L 6.159,22.154 L 6.447,21.114 L 6.786,20.088 L 7.175,19.081 L 7.612,18.094 L 8.098,17.129 L 8.630,16.190 L 9.208,15.277 L 9.829,14.395 L 10.494,13.543 L 11.199,12.726 L 11.944,11.944 L 12.726,11.199 L 13.543,10.494 L 14.395,9.829 L 15.277,9.208 L 16.190,8.630 L 17.129,8.098 L 18.094,7.612 L 19.081,7.175 L 20.088,6.786 L 21.114,6.447 L 22.154,6.159 L 23.208,5.923 L 24.272,5.738 L 25.344,5.606 L 26.421,5.526 L 27.500,5.500 L 28.579,5.526 L 29.656,5.606 L 30.728,5.738 L 31.792,5.923 L 32.846,6.159 L 33.886,6.447 L 34.739,6.729 L 34.755,6.807 L 34.825,7.168 Z M 37.663,9.655 L 37.789,9.261 L 37.886,8.871 L 37.953,8.486 L 37.984,8.162 L 38.810,8.630 L 39.723,9.208 L 40.605,9.829 L 41.457,10.494 L 42.274,11.199 L 43.056,11.944 L 43.801,12.726 L 44.506,13.543 L 44.726,13.825 L 44.467,13.797 L 44.096,13.755 L 43.725,13.713 L 43.355,13.670 L 42.985,13.625 L 42.616,13.579 L 42.247,13.531 L 41.879,13.480 L 41.512,13.428 L 41.145,13.373 L 40.779,13.315 L 40.414,13.255 L 40.049,13.191 L 39.685,13.125 L 39.322,13.055 L 38.960,12.982 L 38.598,12.905 L 38.237,12.825 L 37.877,12.742 L 37.518,12.655 L 37.160,12.564 L 36.802,12.470 L 36.445,12.373 L 36.090,12.272 L 35.870,12.207 L 36.430,12.109 L 36.583,11.710 L 36.882,11.284 L 37.125,10.869 L 37.332,10.459 L 37.511,10.055 L 37.663,9.655 Z M 7.175,35.919 L 6.786,34.912 L 6.584,34.300 L 6.757,34.333 L 7.199,34.418 L 7.641,34.504 L 8.083,34.590 L 8.524,34.677 L 8.964,34.765 L 9.405,34.854 L 9.844,34.945 L 10.145,35.008 L 9.830,35.122 L 9.226,35.915 L 8.954,36.590 L 8.780,37.229 L 8.659,37.849 L 8.580,38.454 L 8.562,38.690 L 8.098,37.871 L 7.612,36.906 L 7.175,35.919 Z" fill="#000000" fill-rule="evenodd"/>
</svg>
