<svg xmlns="http://www.w3.org/2000/svg" viewBox="0 0 55.000 55.000" width="55.000mm" height="55.000mm">
<rect x="0" y="0" width="55.000" height="55.000" fill="#ffffff"/>
<path id="gobo_66" d="M 52.020,22.623 L 51.751,21.425 L 51.424,20.243 L 51.039,19.078 L 50.597,17.933 L 50.100,16.811 L 49.548,15.715 L 48.943,14.647 L 48.287,13.611 L 47.580,12.608 L 46.825,11.640 L 46.024,10.711 L 45.178,9.822 L 44.289,8.976 L 43.360,8.175 L 42.392,7.420 L 41.389,6.713 L 40.353,6.057 L 39.285,5.452 L 38.189,4.900 L 37.067,4.403 L 35.922,3.961 L 34.757,3.576 L 33.575,3.249 L 32.377,2.980 L 31.168,2.771 L 29.950,2.620 L 28.727,2.530 L 27.500,2.500 L 26.273,2.530 L 25.050,2.620 L 23.832,2.771 L 22.623,2.980 L 21.425,3.249 L 20.243,3.576 L 19.078,3.961 L 17.933,4.403 L 16.811,4.900 L 15.715,5.452 L 14.647,6.057 L 13.611,6.713 L 12.608,7.420 L 11.640,8.175 L 10.711,8.976 L 9.822,9.822 L 8.976,10.711 L 8.175,11.640 L 7.420,12.608 L 6.713,13.611 L 6.057,14.647 L 5.452,15.715 L 4.900,16.811 L 4.403,17.933 L 3.961,19.078 L 3.576,20.243 L 3.249,21.425 L 2.980,22.623 L 2.771,23.832 L 2.620,25.050 L 2.530,26.273 L 2.500,27.500 L 2.530,28.727 L 2.620,29.950 L 2.771,31.168 L 2.980,32.377 L 3.249,33.575 L 3.576,34.757 L 3.961,35.922 L 4.403,37.067 L 4.900,38.189 L 5.452,39.285 L 6.057,40.353 L 6.713,41.389 L 7.420,42.392 L 8.175,43.360 L 8.976,44.289 L 9.822,45.178 L 10.711,46.024 L 11.640,46.825 L 12.608,47.580 L 13.611,48.287 L 14.647,48.943 L 15.715,49.548 L 16.811,50.100 L 17.933,50.597 L 19.078,51.039 L 20.243,51.424 L 21.425,51.751 L 22.623,52.020 L 23.832,52.229 L 25.050,52.380 L 26.273,52.470 L 27.500,52.500 L 28.727,52.470 L 29.950,52.380 L 31.168,52.229 L 32.377,52.020 L 33.575,51.751 L 34.757,51.424 L 35.922,51.039 L 37.067,50.597 L 38.189,50.100 L 39.285,49.548 L 40.353,48.943 L 41.389,48.287 L 42.392,47.580 L 43.360,46.825 L 44.289,46.024 L 45.178,45.178 L 46.024,44.289 L 46.825,43.360 L 47.580,42.392 L 48.287,41.389 L 48.943,40.353 L 49.548,39.285 L 50.100,38.189 L 50.597,37.067 L 51.039,35.922 L 51.424,34.757 L 51.751,33.575 L 52.020,32.377 L 52.229,31.168 L 52.380,29.950 L 52.470,28.727 L 52.500,27.500 L 52.470,26.273 L 52.380,25.050 L 52.229,23.832 L 52.020,22.623 Z M 38.269,19.857 L 38.036,19.458 L 37.788,19.081 L 37.523,18.726 L 37.244,18.392 L 36.949,18.080 L 36.638,17.790 L 36.311,17.522 L 35.968,17.277 L 35.609,17.054 L 35.235,16.853 L 34.844,16.674 L 34.438,16.516 L 34.017,16.381 L 33.580,16.266 L 33.127,16.174 L 32.658,16.105 L 32.170,16.063 L 31.656,16.056 L 31.097,16.112 L 30.454,16.286 L 29.955,16.983 L 30.245,17.303 L 30.592,17.543 L 30.966,17.744 L 31.351,17.931 L 31.740,18.112 L 32.129,18.293 L 32.515,18.478 L 32.896,18.670 L 33.272,18.869 L 33.640,19.079 L 34.000,19.301 L 34.352,19.534 L 34.695,19.779 L 35.029,20.037 L 35.354,20.307 L 35.671,20.588 L 35.981,20.879 L 36.286,21.179 L 36.585,21.485 L 36.882,21.794 L 37.178,22.104 L 37.288,22.215 L 37.155,22.275 L 37.153,22.276 L 37.012,22.340 L 37.011,22.341 L 36.869,22.405 L 36.728,22.470 L 36.684,22.493 L 36.643,22.519 L 36.605,22.550 L 36.570,22.584 L 36.538,22.622 L 36.510,22.662 L 36.487,22.705 L 36.467,22.750 L 36.452,22.797 L 36.442,22.845 L 36.437,22.894 L 36.436,22.943 L 36.440,22.992 L 36.449,23.040 L 36.463,23.087 L 36.481,23.133 L 36.504,23.176 L 36.531,23.218 L 36.561,23.256 L 36.595,23.291 L 36.633,23.323 L 36.673,23.350 L 36.716,23.374 L 36.762,23.393 L 36.808,23.408 L 36.856,23.418 L 36.905,23.424 L 36.954,23.424 L 37.003,23.420 L 37.051,23.411 L 37.098,23.398 L 37.144,23.379 L 37.285,23.315 L 37.426,23.250 L 37.566,23.187 L 37.706,23.123 L 37.846,23.061 L 37.986,22.999 L 38.119,22.942 L 38.129,22.949 L 38.525,23.120 L 38.871,22.637 L 38.967,22.602 L 39.108,22.550 L 39.249,22.501 L 39.391,22.453 L 39.533,22.408 L 39.676,22.363 L 39.819,22.321 L 39.962,22.281 L 40.107,22.242 L 40.251,22.205 L 40.396,22.170 L 40.542,22.137 L 40.688,22.105 L 40.835,22.075 L 40.982,22.047 L 41.130,22.020 L 41.278,21.994 L 41.424,21.971 L 41.376,22.017 L 41.373,22.020 L 41.087,22.299 L 41.084,22.302 L 40.799,22.584 L 40.796,22.587 L 40.515,22.872 L 40.512,22.875 L 40.232,23.162 L 40.229,23.165 L 39.953,23.454 L 39.950,23.457 L 39.675,23.749 L 39.673,23.752 L 39.401,24.046 L 39.398,24.049 L 39.128,24.345 L 39.126,24.347 L 38.859,24.646 L 38.856,24.648 L 38.591,24.948 L 38.589,24.951 L 38.353,25.222 L 38.334,24.717 L 37.829,24.130 L 37.332,23.766 L 36.839,23.495 L 36.347,23.276 L 35.856,23.093 L 35.367,22.940 L 34.879,22.814 L 34.391,22.713 L 33.905,22.636 L 33.419,22.583 L 32.934,22.554 L 32.450,22.548 L 31.967,22.565 L 31.485,22.606 L 31.003,22.671 L 30.523,22.759 L 30.043,22.871 L 29.564,23.007 L 29.086,23.168 L 28.609,23.356 L 28.133,23.574 L 27.659,23.828 L 27.186,24.134 L 26.717,24.533 L 26.255,25.155 L 26.286,26.012 L 26.781,26.316 L 27.270,26.462 L 27.757,26.545 L 28.243,26.596 L 28.728,26.628 L 29.212,26.646 L 29.696,26.656 L 30.180,26.658 L 30.664,26.654 L 31.147,26.646 L 31.631,26.635 L 32.114,26.620 L 32.597,26.602 L 33.080,26.582 L 33.563,26.558 L 34.046,26.531 L 34.529,26.500 L 35.011,26.463 L 35.493,26.419 L 35.975,26.365 L 36.456,26.298 L 36.937,26.212 L 37.417,26.094 L 37.703,25.985 L 37.543,26.176 L 37.541,26.178 L 37.286,26.486 L 37.284,26.487 L 37.030,26.797 L 37.029,26.798 L 36.776,27.108 L 36.775,27.110 L 36.523,27.421 L 36.522,27.422 L 36.271,27.733 L 36.270,27.734 L 36.019,28.047 L 36.019,28.047 L 35.769,28.360 L 35.519,28.673 L 35.490,28.712 L 35.465,28.755 L 35.445,28.799 L 35.429,28.846 L 35.418,28.894 L 35.411,28.942 L 35.409,28.991 L 35.412,29.040 L 35.420,29.089 L 35.433,29.136 L 35.450,29.182 L 35.472,29.226 L 35.497,29.268 L 35.527,29.307 L 35.560,29.343 L 35.597,29.375 L 35.637,29.404 L 35.679,29.429 L 35.724,29.449 L 35.770,29.465 L 35.818,29.476 L 35.867,29.483 L 35.916,29.485 L 35.965,29.482 L 36.013,29.474 L 36.061,29.461 L 36.107,29.444 L 36.151,29.423 L 36.193,29.397 L 36.232,29.367 L 36.268,29.334 L 36.300,29.297 L 36.550,28.984 L 36.800,28.672 L 37.050,28.360 L 37.300,28.050 L 37.551,27.740 L 37.803,27.431 L 38.056,27.123 L 38.310,26.817 L 38.566,26.513 L 38.823,26.210 L 39.081,25.908 L 39.342,25.609 L 39.605,25.312 L 39.869,25.016 L 40.136,24.723 L 40.405,24.432 L 40.677,24.144 L 40.950,23.858 L 41.227,23.574 L 41.505,23.293 L 41.786,23.014 L 42.070,22.737 L 42.356,22.463 L 42.644,22.191 L 42.935,21.922 L 43.228,21.655 L 43.523,21.390 L 43.820,21.127 L 44.119,20.866 L 44.420,20.607 L 44.723,20.350 L 45.027,20.094 L 45.333,19.840 L 45.640,19.587 L 45.949,19.334 L 46.259,19.083 L 46.569,18.832 L 46.881,18.582 L 47.193,18.332 L 47.415,18.154 L 47.825,19.081 L 48.214,20.088 L 48.553,21.114 L 48.841,22.154 L 49.077,23.208 L 49.262,24.272 L 49.394,25.344 L 49.474,26.421 L 49.500,27.500 L 49.474,28.579 L 49.394,29.656 L 49.262,30.728 L 49.077,31.792 L 48.841,32.846 L 48.553,33.886 L 48.214,34.912 L 47.825,35.919 L 47.388,36.906 L 46.902,37.871 L 46.370,38.810 L 45.792,39.723 L 45.171,40.605 L 44.506,41.457 L 43.801,42.274 L 43.056,43.056 L 42.274,43.801 L 41.457,44.506 L 40.605,45.171 L 39.723,45.792 L 38.810,46.370 L 37.871,46.902 L 36.906,47.388 L 35.919,47.825 L 34.912,48.214 L 33.886,48.553 L 32.846,48.841 L 31.792,49.077 L 30.728,49.262 L 29.656,49.394 L 28.579,49.474 L 27.500,49.500 L 26.421,49.474 L 25.344,49.394 L 24.272,49.262 L 23.208,49.077 L 22.154,48.841 L 21.114,48.553 L 20.088,48.214 L 19.081,47.825 L 18.094,47.388 L 17.129,46.902 L 16.190,46.370 L 15.277,45.792 L 14.395,45.171 L 13.543,44.506 L 12.878,43.932 L 12.883,43.926 L 12.914,43.888 L 13.153,43.550 L 13.393,43.212 L 13.633,42.875 L 13.873,42.538 L 14.114,42.203 L 14.356,41.869 L 14.600,41.536 L 14.845,41.205 L 15.091,40.875 L 15.339,40.547 L 15.590,40.220 L 15.842,39.896 L 16.097,39.574 L 16.354,39.254 L 16.614,38.936 L 16.876,38.620 L 17.141,38.307 L 17.409,37.997 L 17.494,37.900 L 17.371,38.121 L 17.430,39.073 L 17.690,39.670 L 18.001,40.173 L 18.341,40.627 L 18.699,41.047 L 19.073,41.440 L 19.460,41.809 L 19.858,42.158 L 20.268,42.486 L 20.689,42.795 L 21.120,43.085 L 21.561,43.357 L 22.013,43.611 L 22.475,43.845 L 22.948,44.062 L 23.431,44.259 L 23.925,44.438 L 24.430,44.596 L 24.947,44.733 L 25.477,44.847 L 26.022,44.934 L 26.586,44.987 L 27.178,44.991 L 27.822,44.901 L 28.666,44.455 L 29.086,43.707 L 28.859,43.052 L 28.490,42.650 L 28.086,42.312 L 27.664,42.005 L 27.232,41.716 L 26.794,41.440 L 26.350,41.171 L 25.904,40.908 L 25.456,40.649 L 25.006,40.392 L 24.555,40.137 L 24.103,39.882 L 23.652,39.629 L 23.199,39.376 L 22.747,39.125 L 22.293,38.875 L 21.838,38.628 L 21.380,38.384 L 20.920,38.146 L 20.455,37.916 L 19.983,37.698 L 19.501,37.499 L 19.002,37.330 L 18.467,37.225 L 18.006,37.325 L 18.230,37.081 L 18.509,36.780 L 18.791,36.483 L 19.076,36.188 L 19.363,35.895 L 19.653,35.604 L 19.946,35.316 L 20.241,35.030 L 20.261,35.011 L 20.452,35.302 L 20.728,35.676 L 21.014,36.023 L 21.307,36.347 L 21.607,36.651 L 21.914,36.934 L 22.229,37.193 L 22.553,37.428 L 22.885,37.636 L 23.227,37.816 L 23.578,37.967 L 23.939,38.088 L 24.311,38.179 L 24.692,38.241 L 25.082,38.275 L 25.482,38.283 L 25.889,38.266 L 26.305,38.226 L 26.727,38.164 L 27.157,38.081 L 27.594,37.977 L 28.040,37.845 L 28.496,37.682 L 28.880,37.736 L 29.153,36.923 L 28.769,36.869 L 28.437,36.660 L 28.099,36.469 L 27.757,36.292 L 27.411,36.123 L 27.064,35.961 L 26.714,35.804 L 26.363,35.653 L 26.010,35.507 L 25.655,35.366 L 25.298,35.232 L 24.939,35.104 L 24.578,34.983 L 24.214,34.869 L 23.848,34.761 L 23.481,34.659 L 23.111,34.563 L 22.739,34.472 L 22.366,34.387 L 21.991,34.307 L 21.614,34.233 L 21.234,34.168 L 21.167,34.159 L 21.442,33.906 L 21.747,33.630 L 22.054,33.354 L 22.362,33.079 L 22.672,32.806 L 22.982,32.533 L 23.293,32.260 L 23.605,31.988 L 23.918,31.715 L 23.953,31.681 L 23.985,31.644 L 24.013,31.604 L 24.037,31.561 L 24.057,31.516 L 24.072,31.469 L 24.082,31.421 L 24.088,31.373 L 24.089,31.324 L 24.085,31.275 L 24.076,31.226 L 24.063,31.179 L 24.045,31.134 L 24.023,31.090 L 23.997,31.049 L 23.966,31.010 L 23.932,30.975 L 23.895,30.943 L 23.855,30.915 L 23.812,30.891 L 23.767,30.871 L 23.720,30.856 L 23.672,30.846 L 23.623,30.840 L 23.574,30.839 L 23.525,30.843 L 23.477,30.851 L 23.430,30.865 L 23.384,30.883 L 23.341,30.905 L 23.299,30.931 L 23.261,30.962 L 22.948,31.234 L 22.635,31.507 L 22.635,31.508 L 22.323,31.781 L 22.322,31.781 L 22.011,32.055 L 22.010,32.056 L 21.699,32.331 L 21.698,32.332 L 21.388,32.608 L 21.387,32.609 L 21.078,32.887 L 21.076,32.888 L 20.769,33.167 L 20.767,33.169 L 20.462,33.449 L 20.459,33.451 L 20.156,33.733 L 20.153,33.735 L 19.851,34.020 L 19.849,34.022 L 19.549,34.308 L 19.546,34.311 L 19.248,34.600 L 19.245,34.602 L 18.950,34.893 L 18.947,34.896 L 18.654,35.190 L 18.651,35.193 L 18.360,35.489 L 18.357,35.492 L 18.070,35.790 L 18.066,35.793 L 17.781,36.095 L 17.778,36.098 L 17.496,36.402 L 17.493,36.405 L 17.213,36.711 L 17.210,36.715 L 16.933,37.024 L 16.930,37.027 L 16.657,37.339 L 16.653,37.342 L 16.383,37.656 L 16.380,37.659 L 16.112,37.976 L 16.109,37.979 L 15.844,38.298 L 15.841,38.301 L 15.578,38.622 L 15.576,38.626 L 15.316,38.949 L 15.314,38.952 L 15.056,39.277 L 15.054,39.280 L 14.799,39.607 L 14.797,39.610 L 14.545,39.939 L 14.543,39.942 L 14.293,40.272 L 14.291,40.275 L 14.043,40.607 L 14.041,40.609 L 13.795,40.943 L 13.793,40.945 L 13.549,41.280 L 13.547,41.281 L 13.304,41.617 L 13.303,41.618 L 13.061,41.955 L 13.060,41.956 L 12.819,42.294 L 12.818,42.294 L 12.578,42.632 L 12.577,42.633 L 12.338,42.971 L 12.143,43.246 L 11.944,43.056 L 11.199,42.274 L 10.494,41.457 L 9.829,40.605 L 9.208,39.723 L 8.630,38.810 L 8.098,37.871 L 7.612,36.906 L 7.175,35.919 L 6.786,34.912 L 6.447,33.886 L 6.159,32.846 L 5.923,31.792 L 5.738,30.728 L 5.606,29.656 L 5.526,28.579 L 5.500,27.500 L 5.526,26.421 L 5.606,25.344 L 5.738,24.272 L 5.923,23.208 L 6.159,22.154 L 6.447,21.114 L 6.786,20.088 L 7.175,19.081 L 7.612,18.094 L 8.098,17.129 L 8.630,16.190 L 9.208,15.277 L 9.829,14.395 L 10.494,13.543 L 11.199,12.726 L 11.944,11.944 L 12.726,11.199 L 13.543,10.494 L 14.395,9.829 L 15.277,9.208 L 16.190,8.630 L 17.129,8.098 L 18.094,7.612 L 19.081,7.175 L 20.088,6.786 L 21.114,6.447 L 22.154,6.159 L 23.208,5.923 L 24.272,5.738 L 25.344,5.606 L 26.421,5.526 L 27.500,5.500 L 28.579,5.526 L 29.656,5.606 L 30.728,5.738 L 31.792,5.923 L 32.846,6.159 L 33.886,6.447 L 34.912,6.786 L 35.919,7.175 L 36.906,7.612 L 37.871,8.098 L 38.810,8.630 L 39.723,9.208 L 40.605,9.829 L 41.457,10.494 L 42.274,11.199 L 43.056,11.944 L 43.801,12.726 L 44.506,13.543 L 45.171,14.395 L 45.792,15.277 L 46.370,16.190 L 46.902,17.129 L 46.962,17.248 L 46.920,17.273 L 46.880,17.301 L 46.568,17.551 L 46.255,17.802 L 46.254,17.802 L 45.942,18.053 L 45.942,18.054 L 45.630,18.305 L 45.629,18.306 L 45.318,18.559 L 45.317,18.560 L 45.007,18.813 L 45.005,18.814 L 44.696,19.069 L 44.695,19.070 L 44.387,19.326 L 44.385,19.328 L 44.078,19.585 L 44.076,19.587 L 43.771,19.846 L 43.769,19.848 L 43.465,20.109 L 43.463,20.112 L 43.161,20.375 L 43.159,20.377 L 42.859,20.642 L 42.856,20.645 L 42.678,20.805 L 42.529,20.821 L 42.528,20.821 L 42.373,20.838 L 42.372,20.838 L 42.217,20.856 L 42.215,20.856 L 42.061,20.875 L 42.058,20.875 L 41.904,20.894 L 41.901,20.894 L 41.747,20.914 L 41.744,20.915 L 41.590,20.936 L 41.586,20.936 L 41.432,20.958 L 41.428,20.959 L 41.275,20.982 L 41.270,20.983 L 41.117,21.008 L 41.112,21.008 L 40.959,21.034 L 40.954,21.035 L 40.801,21.063 L 40.795,21.064 L 40.643,21.094 L 40.637,21.095 L 40.485,21.126 L 40.479,21.127 L 40.327,21.160 L 40.321,21.161 L 40.170,21.196 L 40.164,21.197 L 40.013,21.234 L 40.007,21.235 L 39.856,21.274 L 39.850,21.275 L 39.700,21.316 L 39.694,21.317 L 39.544,21.360 L 39.538,21.361 L 39.389,21.405 L 39.383,21.407 L 39.235,21.453 L 39.229,21.455 L 39.081,21.503 L 39.075,21.505 L 38.934,21.552 L 38.855,21.212 L 38.683,20.727 L 38.486,20.279 L 38.269,19.857 Z" fill="#000000" fill-rule="evenodd"/>
</svg>
