<svg xmlns="http://www.w3.org/2000/svg" viewBox="0 0 55.000 55.000" width="55.000mm" height="55.000mm">
<rect x="0" y="0" width="55.000" height="55.000" fill="#ffffff"/>
<path id="gobo_73" d="M 15.750,7.148 C 15.543,7.268 14.217,8.113 14.021,8.250 C 13.825,8.387 12.578,9.344 12.394,9.498 C 12.211,9.652 11.052,10.714 10.883,10.883 C 10.714,11.052 9.652,12.211 9.498,12.394 C 9.344,12.578 8.387,13.825 8.250,14.021 C 8.113,14.217 7.268,15.543 7.148,15.750 C 7.029,15.957 6.303,17.352 6.202,17.568 C 6.101,17.785 5.499,19.238 5.417,19.463 C 5.335,19.687 4.863,21.187 4.801,21.418 C 4.739,21.649 4.399,23.184 4.357,23.419 C 4.316,23.655 4.110,25.214 4.089,25.452 C 4.069,25.690 4.000,27.261 4.000,27.500 C 4.000,27.739 4.069,29.310 4.089,29.548 C 4.110,29.786 4.316,31.345 4.357,31.581 C 4.399,31.816 4.739,33.351 4.801,33.582 C 4.863,33.813 5.335,35.313 5.417,35.537 C 5.499,35.762 6.101,37.215 6.202,37.432 C 6.303,37.648 7.029,39.043 7.148,39.250 C 7.268,39.457 8.113,40.783 8.250,40.979 C 8.387,41.175 9.344,42.422 9.498,42.606 C 9.652,42.789 10.714,43.948 10.883,44.117 C 11.052,44.286 12.211,45.348 12.394,45.502 C 12.578,45.656 13.825,46.613 14.021,46.750 C 14.217,46.887 15.543,47.732 15.750,47.852 C 15.957,47.971 17.352,48.697 17.568,48.798 C 17.785,48.899 19.238,49.501 19.463,49.583 C 19.687,49.665 21.187,50.137 21.418,50.199 C 21.649,50.261 23.184,50.601 23.419,50.643 C 23.655,50.684 25.214,50.890 25.452,50.911 C 25.690,50.931 27.261,51.000 27.500,51.000 C 27.739,51.000 29.310,50.931 29.548,50.911 C 29.786,50.890 31.345,50.684 31.581,50.643 C 31.816,50.601 33.351,50.261 33.582,50.199 C 33.813,50.137 35.313,49.665 35.537,49.583 C 35.762,49.501 37.215,48.899 37.432,48.798 C 37.648,48.697 39.043,47.971 39.250,47.852 C 39.457,47.732 40.783,46.887 40.979,46.750 C 41.175,46.613 42.422,45.656 42.606,45.502 C 42.789,45.348 43.948,44.286 44.117,44.117 C 44.286,43.948 45.348,42.789 45.502,42.606 C 45.656,42.422 46.613,41.175 46.750,40.979 C 46.887,40.783 47.732,39.457 47.852,39.250 C 47.971,39.043 48.697,37.648 48.798,37.432 C 48.899,37.215 49.501,35.762 49.583,35.537 C 49.665,35.313 50.137,33.813 50.199,33.582 C 50.261,33.351 50.601,31.816 50.643,31.581 C 50.684,31.345 50.890,29.786 50.911,29.548 C 50.931,29.310 51.000,27.739 51.000,27.500 C 51.000,27.261 50.931,25.690 50.911,25.452 C 50.890,25.214 50.684,23.655 50.643,23.419 C 50.601,23.184 50.261,21.649 50.199,21.418 C 50.137,21.187 49.665,19.687 49.583,19.463 C 49.501,19.238 48.899,17.785 48.798,17.568 C 48.697,17.352 47.971,15.957 47.852,15.750 C 47.732,15.543 46.887,14.217 46.750,14.021 C 46.613,13.825 45.656,12.578 45.502,12.394 C 45.348,12.211 44.286,11.052 44.117,10.883 C 43.948,10.714 42.789,9.652 42.606,9.498 C 42.422,9.344 41.175,8.387 40.979,8.250 C 40.783,8.113 39.457,7.268 39.250,7.148 C 39.043,7.029 37.648,6.303 37.432,6.202 C 37.215,6.101 35.762,5.499 35.537,5.417 C 35.313,5.335 33.813,4.863 33.582,4.801 C 33.351,4.739 31.816,4.399 31.581,4.357 C 31.345,4.316 29.786,4.110 29.548,4.089 C 29.310,4.069 27.739,4.000 27.500,4.000 C 27.261,4.000 25.690,4.069 25.452,4.089 C 25.214,4.110 23.655,4.316 23.419,4.357 C 23.184,4.399 21.649,4.739 21.418,4.801 C 21.187,4.863 19.687,5.335 19.463,5.417 C 19.238,5.499 17.785,6.101 17.568,6.202 C 17.352,6.303 15.957,7.029 15.750,7.148 Z M 22.169,23.810 C 22.209,23.696 22.524,22.628 22.553,22.462 C 22.582,22.295 22.662,21.093 22.665,20.957 C 22.668,20.822 22.607,20.231 22.610,20.142 C 22.613,20.052 22.757,19.488 22.720,19.421 C 22.683,19.354 22.033,18.982 21.975,18.995 C 21.918,19.008 21.871,19.399 21.739,19.644 C 21.607,19.889 19.953,22.778 19.716,23.192 C 19.480,23.605 17.829,26.497 17.685,26.734 C 17.541,26.972 17.255,27.227 17.246,27.267 C 17.236,27.307 17.627,27.375 17.522,27.425 C 17.418,27.475 15.685,28.055 15.458,28.126 C 15.231,28.196 13.825,28.588 13.636,28.637 C 13.448,28.686 12.324,28.953 12.226,28.960 C 12.128,28.968 11.990,28.759 11.958,28.766 C 11.926,28.772 11.806,29.034 11.670,29.072 C 11.535,29.110 9.731,29.404 9.635,29.412 C 9.539,29.420 9.868,29.257 10.025,29.209 C 10.182,29.160 12.134,28.637 12.331,28.577 C 12.527,28.517 13.275,28.229 13.394,28.178 C 13.513,28.127 14.265,27.764 14.373,27.703 C 14.481,27.642 15.151,27.203 15.246,27.130 C 15.340,27.056 15.916,26.531 15.995,26.444 C 16.075,26.357 16.551,25.739 16.616,25.639 C 16.681,25.538 17.061,24.833 17.113,24.720 C 17.165,24.608 17.463,23.828 17.504,23.705 C 17.545,23.582 17.768,22.813 17.811,22.612 C 17.854,22.411 18.196,20.456 18.246,20.261 C 18.295,20.066 18.673,19.359 18.661,19.267 C 18.648,19.175 18.105,18.676 18.029,18.687 C 17.954,18.698 17.593,19.260 17.365,19.452 C 17.138,19.644 14.402,21.748 14.128,21.978 C 13.854,22.208 12.796,23.264 12.672,23.391 C 12.549,23.518 12.119,24.016 12.009,24.157 C 11.900,24.297 10.965,25.546 10.798,25.794 C 10.631,26.042 9.282,28.205 9.145,28.400 C 9.007,28.594 8.455,29.061 8.439,29.126 C 8.422,29.191 8.999,29.477 8.865,29.518 C 8.731,29.559 6.310,29.952 6.142,29.834 C 5.975,29.716 6.004,27.745 6.000,27.500 C 5.996,27.255 6.063,25.844 6.082,25.626 C 6.101,25.408 6.289,23.982 6.327,23.767 C 6.365,23.551 6.676,22.147 6.733,21.935 C 6.789,21.724 7.222,20.352 7.297,20.147 C 7.371,19.941 7.922,18.612 8.014,18.414 C 8.107,18.216 8.771,16.939 8.880,16.750 C 8.990,16.561 9.747,15.364 9.888,15.168 C 10.029,14.972 11.188,13.489 11.294,13.392 C 11.400,13.295 11.295,13.554 11.701,13.503 C 12.107,13.452 17.987,12.499 18.261,12.523 C 18.534,12.547 16.503,13.820 16.390,13.915 C 16.276,14.009 16.317,14.116 16.316,14.146 C 16.316,14.176 16.367,14.401 16.384,14.429 C 16.400,14.457 16.567,14.612 16.597,14.626 C 16.626,14.640 16.853,14.675 16.883,14.672 C 16.913,14.670 16.904,14.721 17.109,14.582 C 17.313,14.442 19.949,12.434 20.390,12.277 C 20.830,12.120 24.125,11.929 24.659,11.891 C 25.194,11.853 29.254,11.537 29.552,11.623 C 29.851,11.708 29.751,13.202 29.778,13.356 C 29.805,13.511 29.982,14.171 30.014,14.272 C 30.046,14.374 30.286,15.008 30.327,15.099 C 30.368,15.190 30.667,15.757 30.717,15.838 C 30.767,15.919 31.125,16.416 31.184,16.487 C 31.244,16.557 31.663,16.984 31.732,17.044 C 31.801,17.103 32.282,17.459 32.360,17.508 C 32.438,17.557 32.981,17.843 33.068,17.881 C 33.155,17.919 33.758,18.136 33.854,18.164 C 33.950,18.191 34.611,18.341 34.716,18.358 C 34.821,18.376 35.480,18.459 35.656,18.464 C 35.832,18.469 37.587,18.477 37.742,18.438 C 37.896,18.399 38.338,17.890 38.304,17.791 C 38.270,17.692 37.402,16.940 37.157,16.736 C 36.912,16.533 34.458,14.607 34.111,14.306 C 33.764,14.005 31.037,11.733 31.211,11.573 C 31.385,11.414 36.750,11.534 37.098,11.569 C 37.447,11.605 37.161,12.098 37.183,12.179 C 37.205,12.260 37.441,12.872 37.480,12.958 C 37.519,13.044 37.777,13.539 37.850,13.651 C 37.923,13.762 38.617,14.740 38.729,14.871 C 38.841,15.003 39.637,15.794 39.767,15.903 C 39.897,16.013 40.811,16.664 40.960,16.752 C 41.108,16.840 42.189,17.359 42.311,17.412 C 42.433,17.465 42.965,17.636 43.056,17.659 C 43.147,17.683 43.769,17.813 43.874,17.821 C 43.979,17.828 44.765,17.829 44.855,17.789 C 44.944,17.749 45.397,17.212 45.408,17.133 C 45.419,17.054 45.091,16.509 45.042,16.435 C 44.993,16.361 44.720,16.016 44.566,15.868 C 44.413,15.720 42.699,14.142 42.413,13.896 C 42.127,13.650 39.716,11.776 39.668,11.651 C 39.620,11.525 41.459,11.745 41.591,11.741 C 41.723,11.738 41.864,11.555 41.929,11.588 C 41.994,11.620 42.584,12.175 42.703,12.297 C 42.822,12.419 43.829,13.513 43.970,13.680 C 44.110,13.848 44.986,14.989 45.112,15.168 C 45.237,15.347 46.010,16.561 46.120,16.750 C 46.229,16.939 46.893,18.216 46.986,18.414 C 47.078,18.612 47.629,19.941 47.703,20.147 C 47.778,20.352 48.211,21.724 48.267,21.935 C 48.324,22.147 48.635,23.551 48.673,23.767 C 48.711,23.982 48.899,25.408 48.918,25.626 C 48.937,25.844 49.000,27.281 49.000,27.500 C 49.000,27.719 48.937,29.156 48.918,29.374 C 48.899,29.592 48.699,31.073 48.673,31.233 C 48.647,31.394 48.644,32.054 48.474,32.131 C 48.305,32.209 46.061,32.508 45.773,32.560 C 45.486,32.613 43.674,33.030 43.552,33.026 C 43.430,33.022 43.680,32.583 43.678,32.491 C 43.677,32.400 43.547,31.571 43.522,31.456 C 43.497,31.340 43.311,30.668 43.251,30.513 C 43.190,30.358 42.594,28.991 42.490,28.803 C 42.387,28.615 41.611,27.461 41.478,27.297 C 41.346,27.133 40.334,26.100 40.219,25.990 C 40.103,25.880 39.634,25.503 39.496,25.412 C 39.357,25.320 37.996,24.502 37.843,24.423 C 37.689,24.344 37.007,24.072 36.864,24.052 C 36.720,24.032 35.514,24.048 35.389,24.081 C 35.264,24.114 34.750,24.529 34.722,24.620 C 34.693,24.710 34.858,25.536 34.899,25.639 C 34.939,25.742 35.216,26.138 35.416,26.382 C 35.617,26.627 37.998,29.407 38.341,29.830 C 38.684,30.253 41.232,33.380 41.303,33.637 C 41.373,33.894 39.638,34.238 39.555,34.236 C 39.472,34.234 39.919,33.772 39.881,33.602 C 39.843,33.431 38.990,31.505 38.900,31.314 C 38.810,31.123 38.403,30.428 38.333,30.319 C 38.264,30.210 37.783,29.536 37.707,29.441 C 37.630,29.345 37.103,28.762 37.019,28.681 C 36.935,28.600 36.359,28.113 36.267,28.046 C 36.175,27.980 35.548,27.594 35.448,27.542 C 35.349,27.491 34.669,27.206 34.561,27.171 C 34.454,27.135 33.723,26.950 33.608,26.929 C 33.493,26.908 32.712,26.819 32.590,26.813 C 32.467,26.806 31.640,26.808 31.510,26.816 C 31.381,26.823 30.580,26.896 30.372,26.934 C 30.163,26.973 28.106,27.395 27.941,27.470 C 27.776,27.546 27.474,28.134 27.549,28.233 C 27.624,28.332 28.873,28.995 29.223,29.172 C 29.572,29.348 33.043,31.002 33.541,31.257 C 34.038,31.513 37.411,33.373 37.751,33.551 C 38.091,33.729 39.438,34.193 39.368,34.308 C 39.298,34.423 36.890,35.364 36.556,35.520 C 36.222,35.676 33.823,36.889 33.642,36.987 C 33.461,37.086 33.467,37.179 33.455,37.209 C 33.442,37.238 33.416,37.465 33.422,37.497 C 33.428,37.529 33.532,37.732 33.555,37.755 C 33.578,37.778 33.775,37.890 33.809,37.896 C 33.843,37.901 33.891,37.968 34.143,37.851 C 34.395,37.735 37.727,36.078 38.131,35.898 C 38.534,35.717 40.815,34.853 41.064,34.763 C 41.313,34.673 42.307,34.373 42.401,34.355 C 42.494,34.338 42.637,34.475 42.673,34.465 C 42.708,34.456 42.931,34.221 43.014,34.189 C 43.097,34.158 43.791,33.985 44.096,33.925 C 44.401,33.864 48.030,33.097 48.240,33.152 C 48.450,33.206 47.777,34.653 47.703,34.853 C 47.630,35.054 47.078,36.388 46.986,36.586 C 46.893,36.784 46.229,38.061 46.120,38.250 C 46.010,38.439 45.237,39.653 45.112,39.832 C 44.986,40.011 44.110,41.152 43.970,41.320 C 43.829,41.487 42.857,42.548 42.703,42.703 C 42.548,42.857 41.487,43.829 41.320,43.970 C 41.152,44.110 40.011,44.986 39.832,45.112 C 39.653,45.237 38.439,46.010 38.250,46.120 C 38.061,46.229 36.784,46.893 36.586,46.986 C 36.388,47.078 35.059,47.629 34.853,47.703 C 34.648,47.778 33.276,48.211 33.065,48.267 C 32.853,48.324 31.449,48.635 31.233,48.673 C 31.018,48.711 29.592,48.899 29.374,48.918 C 29.156,48.937 27.719,49.000 27.500,49.000 C 27.281,49.000 25.844,48.937 25.626,48.918 C 25.408,48.899 23.982,48.711 23.767,48.673 C 23.551,48.635 22.147,48.324 21.935,48.267 C 21.724,48.211 20.352,47.778 20.147,47.703 C 19.941,47.629 18.612,47.078 18.414,46.986 C 18.216,46.893 16.939,46.229 16.750,46.120 C 16.561,46.010 15.347,45.237 15.168,45.112 C 14.989,44.986 13.848,44.110 13.680,43.970 C 13.513,43.829 12.452,42.857 12.297,42.703 C 12.143,42.548 11.147,41.456 11.030,41.320 C 10.913,41.184 10.330,40.630 10.298,40.366 C 10.267,40.103 10.450,37.251 10.487,36.806 C 10.524,36.362 10.903,33.058 10.928,32.744 C 10.952,32.431 10.826,31.433 10.913,31.432 C 11.000,31.432 12.296,32.603 12.414,32.729 C 12.533,32.855 12.857,33.472 12.950,33.594 C 13.044,33.715 13.877,34.685 14.014,34.814 C 14.151,34.942 15.137,35.696 15.300,35.797 C 15.463,35.898 16.669,36.485 16.806,36.545 C 16.943,36.605 17.543,36.799 17.646,36.827 C 17.748,36.855 18.452,37.008 18.565,37.024 C 18.679,37.040 19.501,37.134 19.595,37.102 C 19.690,37.070 20.178,36.550 20.182,36.477 C 20.186,36.404 19.907,36.073 19.664,35.852 C 19.421,35.631 16.388,33.040 16.010,32.685 C 15.632,32.330 13.264,29.966 13.187,29.774 C 13.110,29.581 14.602,29.410 14.687,29.392 C 14.772,29.375 14.598,29.385 14.646,29.477 C 14.694,29.569 15.399,30.808 15.506,30.968 C 15.614,31.127 16.362,32.085 16.485,32.212 C 16.607,32.340 17.469,33.061 17.609,33.152 C 17.750,33.243 18.775,33.720 18.890,33.767 C 19.006,33.813 19.461,33.932 19.589,33.951 C 19.718,33.970 20.965,34.082 21.100,34.087 C 21.235,34.092 21.763,34.060 21.910,34.042 C 22.056,34.024 23.490,33.842 23.611,33.781 C 23.732,33.721 24.225,33.172 23.982,33.008 C 23.739,32.844 19.924,31.201 19.444,30.972 C 18.964,30.742 15.833,29.238 15.760,29.079 C 15.688,28.919 17.878,28.363 18.202,28.241 C 18.526,28.119 21.123,27.076 21.314,26.989 C 21.505,26.902 21.467,26.777 21.477,26.749 C 21.487,26.721 21.496,26.533 21.491,26.506 C 21.486,26.479 21.408,26.308 21.389,26.286 C 21.369,26.264 21.179,26.133 21.148,26.123 C 21.117,26.113 20.937,26.096 20.858,26.121 C 20.779,26.146 19.778,26.586 19.788,26.550 C 19.799,26.515 20.924,25.644 21.045,25.519 C 21.167,25.395 21.803,24.522 21.868,24.422 C 21.934,24.322 22.129,23.924 22.169,23.810 Z M 39.155,9.457 C 39.324,9.486 41.016,10.641 40.897,10.706 C 40.778,10.771 37.283,10.598 37.115,10.569 C 36.946,10.540 37.887,10.274 38.006,10.209 C 38.125,10.144 38.986,9.428 39.155,9.457 Z M 24.861,9.732 C 25.078,9.626 27.860,8.482 28.303,8.323 C 28.746,8.163 32.209,7.085 32.463,6.999 C 32.717,6.913 32.641,6.874 32.658,6.855 C 32.675,6.835 32.627,6.638 32.755,6.664 C 32.883,6.690 34.650,7.226 34.853,7.297 C 35.057,7.367 36.236,7.765 36.244,7.873 C 36.253,7.981 35.130,9.006 34.998,9.149 C 34.867,9.292 34.066,10.238 33.990,10.319 C 33.913,10.400 34.055,10.517 33.686,10.539 C 33.318,10.562 28.334,10.671 27.670,10.702 C 27.006,10.734 22.498,11.125 22.305,11.082 C 22.112,11.039 24.227,10.028 24.361,9.973 C 24.494,9.917 24.563,10.151 24.593,10.137 C 24.622,10.123 24.645,9.838 24.861,9.732 Z M 24.361,7.466 C 24.301,7.330 23.698,6.407 23.772,6.326 C 23.846,6.245 25.409,6.101 25.626,6.082 C 25.844,6.063 27.281,6.000 27.500,6.000 C 27.719,6.000 29.156,6.063 29.374,6.082 C 29.592,6.101 31.316,6.251 31.234,6.327 C 31.152,6.403 28.341,7.246 27.965,7.382 C 27.590,7.518 25.007,8.654 24.796,8.659 C 24.586,8.664 24.421,7.602 24.361,7.466 Z M 20.548,7.170 C 20.840,7.247 23.414,9.111 23.430,9.324 C 23.446,9.536 21.023,10.783 20.821,10.811 C 20.619,10.838 20.045,9.880 19.968,9.797 C 19.892,9.713 19.592,9.440 19.508,9.376 C 19.424,9.311 18.627,8.752 18.528,8.691 C 18.428,8.630 17.815,8.369 17.808,8.330 C 17.802,8.290 18.254,8.082 18.414,8.014 C 18.573,7.947 20.255,7.094 20.548,7.170 Z M 15.406,9.737 C 15.753,9.755 19.586,11.235 19.628,11.355 C 19.671,11.475 16.560,11.734 16.127,11.795 C 15.694,11.856 12.344,12.447 12.201,12.402 C 12.058,12.358 13.493,11.186 13.680,11.030 C 13.867,10.875 15.059,9.718 15.406,9.737 Z M 11.061,30.199 C 11.054,30.166 11.444,30.097 11.475,30.126 C 11.507,30.156 11.622,30.699 11.598,30.704 C 11.574,30.708 11.068,30.233 11.061,30.199 Z M 6.273,30.826 C 6.453,30.670 9.602,30.406 9.824,30.395 C 10.046,30.384 10.069,30.626 10.076,30.639 C 10.083,30.653 10.006,30.575 9.940,30.630 C 9.874,30.685 9.047,31.472 8.949,31.585 C 8.851,31.697 8.333,32.446 8.261,32.560 C 8.190,32.675 7.785,33.421 7.726,33.547 C 7.667,33.672 7.308,34.734 7.250,34.705 C 7.192,34.677 6.790,33.291 6.733,33.065 C 6.676,32.838 6.093,30.982 6.273,30.826 Z" fill="#000000" fill-rule="evenodd"/>
</svg>
