<svg xmlns="http://www.w3.org/2000/svg" viewBox="0 0 55.000 55.000" width="55.000mm" height="55.000mm">
<rect x="0" y="0" width="55.000" height="55.000" fill="#ffffff"/>
<path id="gobo_64" d="M 8.250,14.021 C 7.977,14.411 6.367,17.251 6.202,17.568 C 6.037,17.886 5.525,19.121 5.417,19.463 C 5.310,19.804 4.440,22.950 4.357,23.419 C 4.274,23.888 4.000,27.024 4.000,27.500 C 4.000,27.976 4.274,31.112 4.357,31.581 C 4.440,32.050 5.254,35.090 5.417,35.537 C 5.580,35.985 6.983,38.933 7.148,39.250 C 7.314,39.567 8.032,40.695 8.250,40.979 C 8.468,41.263 10.546,43.780 10.883,44.117 C 11.220,44.454 13.631,46.477 14.021,46.750 C 14.411,47.023 17.137,48.597 17.568,48.798 C 18.000,48.999 20.958,50.076 21.418,50.199 C 21.878,50.322 24.978,50.869 25.452,50.911 C 25.926,50.952 29.191,50.926 29.548,50.911 C 29.906,50.895 31.345,50.684 31.581,50.643 C 31.816,50.601 33.241,50.307 33.582,50.199 C 33.924,50.092 37.000,48.999 37.432,48.798 C 37.863,48.597 40.589,47.023 40.979,46.750 C 41.369,46.477 43.780,44.454 44.117,44.117 C 44.454,43.780 46.477,41.369 46.750,40.979 C 47.023,40.589 48.597,37.863 48.798,37.432 C 48.999,37.000 50.076,34.042 50.199,33.582 C 50.322,33.122 50.869,30.022 50.911,29.548 C 50.952,29.074 50.926,25.809 50.911,25.452 C 50.895,25.094 50.720,23.769 50.643,23.419 C 50.566,23.070 49.690,19.804 49.583,19.463 C 49.475,19.121 48.963,17.886 48.798,17.568 C 48.633,17.251 47.023,14.411 46.750,14.021 C 46.477,13.631 44.454,11.220 44.117,10.883 C 43.780,10.546 41.369,8.523 40.979,8.250 C 40.589,7.977 37.863,6.403 37.432,6.202 C 37.000,6.001 33.924,4.908 33.582,4.801 C 33.241,4.693 31.936,4.404 31.581,4.357 C 31.226,4.310 27.976,4.000 27.500,4.000 C 27.024,4.000 23.888,4.274 23.419,4.357 C 22.950,4.440 19.804,5.310 19.463,5.417 C 19.121,5.525 17.886,6.037 17.568,6.202 C 17.251,6.367 14.411,7.977 14.021,8.250 C 13.631,8.523 11.220,10.546 10.883,10.883 C 10.546,11.220 8.523,13.631 8.250,14.021 Z M 7.519,19.812 C 7.926,19.535 13.387,17.322 13.716,17.195 C 14.045,17.068 13.206,17.527 13.158,17.634 C 13.109,17.741 12.864,18.834 12.878,19.029 C 12.892,19.224 13.286,20.717 13.393,20.976 C 13.500,21.235 14.530,23.198 14.711,23.467 C 14.893,23.736 16.312,25.394 16.502,25.588 C 16.691,25.782 17.773,26.666 17.962,26.792 C 18.150,26.919 19.545,27.694 19.731,27.753 C 19.918,27.813 21.031,27.839 21.153,27.812 C 21.275,27.785 21.797,27.375 21.827,27.282 C 21.858,27.190 21.709,26.337 21.672,26.229 C 21.634,26.121 21.544,25.908 21.182,25.438 C 20.820,24.968 15.842,18.631 15.471,18.168 C 15.100,17.705 14.912,17.566 14.818,17.505 C 14.725,17.444 13.779,17.218 13.870,17.120 C 13.962,17.021 16.250,15.875 16.391,15.816 C 16.533,15.757 16.236,15.988 16.300,16.102 C 16.364,16.216 17.305,17.561 17.491,17.766 C 17.676,17.971 19.231,19.457 19.481,19.618 C 19.731,19.779 21.486,20.478 21.772,20.528 C 22.057,20.578 24.051,20.526 24.370,20.471 C 24.689,20.416 27.051,19.682 27.233,19.583 C 27.415,19.483 27.806,18.886 27.493,18.765 C 27.180,18.645 22.482,17.711 21.870,17.519 C 21.257,17.327 17.146,15.678 16.996,15.480 C 16.846,15.282 19.076,14.125 19.299,14.124 C 19.522,14.124 20.640,15.347 20.814,15.475 C 20.989,15.603 22.115,16.241 22.291,16.318 C 22.468,16.395 23.652,16.760 23.836,16.794 C 24.020,16.828 25.256,16.907 25.448,16.898 C 25.641,16.888 26.877,16.711 27.129,16.635 C 27.380,16.559 29.604,15.708 29.767,15.598 C 29.930,15.488 30.426,14.907 29.922,14.755 C 29.417,14.602 21.531,13.155 21.115,12.985 C 20.698,12.816 22.687,11.941 22.781,11.842 C 22.876,11.743 22.766,11.331 22.735,11.289 C 22.705,11.246 22.441,11.019 22.254,11.108 C 22.067,11.196 19.727,12.711 19.530,12.805 C 19.332,12.899 18.916,12.698 18.872,12.725 C 18.827,12.753 18.927,13.155 18.771,13.275 C 18.614,13.396 16.629,14.556 16.183,14.790 C 15.738,15.024 11.386,17.249 11.131,17.289 C 10.876,17.329 11.753,15.758 11.813,15.476 C 11.873,15.194 12.050,12.708 12.159,12.448 C 12.268,12.189 13.412,11.238 13.680,11.030 C 13.948,10.822 16.474,9.056 16.750,8.880 C 17.026,8.705 18.111,8.140 18.414,8.014 C 18.716,7.889 21.515,6.845 21.935,6.733 C 22.356,6.620 25.302,6.125 25.626,6.082 C 25.951,6.039 27.281,6.000 27.500,6.000 C 27.719,6.000 29.049,6.039 29.374,6.082 C 29.698,6.125 32.745,6.662 33.065,6.733 C 33.384,6.803 34.648,7.222 34.853,7.297 C 35.059,7.371 36.388,7.922 36.586,8.014 C 36.784,8.107 37.986,8.714 38.250,8.880 C 38.514,9.047 41.070,10.666 41.118,10.875 C 41.166,11.084 39.201,12.427 39.074,12.462 C 38.948,12.497 39.017,11.629 38.947,11.473 C 38.876,11.318 38.006,9.967 37.869,9.794 C 37.731,9.621 36.744,8.639 36.584,8.508 C 36.425,8.376 35.362,7.646 35.132,7.540 C 34.902,7.434 32.894,6.745 32.639,6.686 C 32.384,6.627 30.931,6.531 30.762,6.528 C 30.592,6.524 29.868,6.579 29.730,6.625 C 29.591,6.671 28.489,7.229 28.387,7.313 C 28.286,7.398 27.977,7.983 27.988,8.072 C 27.998,8.161 28.251,8.674 28.566,8.838 C 28.880,9.001 32.848,10.597 33.378,10.875 C 33.907,11.153 37.493,13.359 37.640,13.601 C 37.787,13.844 36.071,15.055 35.903,15.031 C 35.735,15.008 34.904,13.380 34.766,13.198 C 34.627,13.015 33.683,12.025 33.528,11.903 C 33.374,11.782 32.244,11.171 32.117,11.114 C 31.989,11.057 31.537,10.921 31.341,10.922 C 31.144,10.922 29.065,11.046 28.746,11.116 C 28.427,11.187 26.055,12.018 25.871,12.124 C 25.686,12.230 25.338,12.812 25.590,12.934 C 25.843,13.057 29.663,14.045 30.199,14.222 C 30.736,14.400 34.727,15.694 34.793,15.983 C 34.859,16.273 31.766,18.763 31.334,19.187 C 30.902,19.611 27.654,22.969 27.387,23.247 C 27.119,23.525 26.784,23.883 26.749,23.954 C 26.714,24.025 26.768,24.425 26.790,24.467 C 26.811,24.508 27.071,24.665 27.114,24.670 C 27.157,24.675 27.102,24.960 27.525,24.554 C 27.949,24.147 33.884,18.174 34.368,17.699 C 34.852,17.224 35.717,16.482 35.820,16.417 C 35.922,16.351 36.095,16.602 36.125,16.577 C 36.155,16.551 35.996,16.272 36.332,15.978 C 36.667,15.685 41.433,11.676 41.879,11.542 C 42.325,11.408 43.781,13.469 43.970,13.680 C 44.159,13.892 44.936,14.892 45.112,15.168 C 45.288,15.444 46.834,18.123 46.986,18.414 C 47.137,18.704 47.629,19.941 47.703,20.147 C 47.778,20.352 48.197,21.616 48.267,21.935 C 48.338,22.255 48.880,25.190 48.918,25.626 C 48.956,26.062 49.219,29.048 48.914,29.408 C 48.608,29.769 44.254,31.518 43.675,31.807 C 43.096,32.095 39.256,34.226 38.987,34.352 C 38.717,34.477 39.144,34.065 39.059,33.957 C 38.974,33.849 37.757,32.675 37.526,32.499 C 37.296,32.323 35.404,31.066 35.112,30.938 C 34.821,30.810 32.840,30.320 32.528,30.300 C 32.217,30.280 30.103,30.516 29.773,30.599 C 29.443,30.681 27.042,31.623 26.867,31.718 C 26.692,31.813 27.074,32.111 26.774,32.225 C 26.473,32.339 22.261,33.485 21.707,33.668 C 21.154,33.850 17.753,35.152 17.289,35.353 C 16.826,35.554 14.201,36.871 13.757,37.113 C 13.313,37.355 10.012,39.531 9.677,39.500 C 9.342,39.469 8.153,36.857 8.014,36.586 C 7.876,36.315 7.395,35.166 7.297,34.853 C 7.198,34.541 6.397,31.553 6.327,31.233 C 6.256,30.914 6.096,29.701 6.082,29.374 C 6.068,29.047 6.068,25.953 6.082,25.626 C 6.096,25.299 6.289,23.982 6.327,23.767 C 6.365,23.551 6.663,22.166 6.733,21.935 C 6.802,21.705 7.111,20.088 7.519,19.812 Z M 24.381,35.922 C 24.430,36.170 24.319,39.601 24.343,39.932 C 24.367,40.263 24.749,41.456 24.799,41.595 C 24.848,41.734 25.139,42.238 25.192,42.318 C 25.244,42.397 25.593,42.863 25.701,42.964 C 25.810,43.064 26.765,43.882 27.050,44.038 C 27.336,44.193 30.348,45.561 30.597,45.626 C 30.846,45.692 31.449,45.408 31.313,45.154 C 31.176,44.901 28.612,41.807 28.256,41.279 C 27.899,40.751 25.129,36.375 25.197,36.102 C 25.265,35.828 29.151,36.576 29.423,36.588 C 29.694,36.600 29.833,36.357 29.856,36.311 C 29.879,36.265 29.837,35.840 29.815,35.798 C 29.794,35.757 29.775,35.640 29.491,35.595 C 29.208,35.550 25.315,35.087 24.956,35.029 C 24.598,34.972 23.456,34.647 23.349,34.603 C 23.243,34.559 22.899,34.359 23.127,34.273 C 23.354,34.187 26.993,33.213 27.252,33.133 C 27.510,33.054 27.387,32.865 27.552,32.908 C 27.717,32.950 29.776,33.772 30.074,33.863 C 30.372,33.955 32.357,34.419 32.662,34.475 C 32.967,34.530 34.976,34.803 35.299,34.823 C 35.622,34.843 38.387,34.589 38.204,34.820 C 38.022,35.050 32.528,38.511 32.168,38.775 C 31.807,39.040 32.006,39.303 32.028,39.355 C 32.050,39.406 32.037,39.938 32.542,39.656 C 33.046,39.375 39.729,35.064 40.675,34.530 C 41.622,33.996 48.327,30.585 48.770,30.499 C 49.213,30.414 48.371,32.710 48.267,33.065 C 48.163,33.420 47.111,36.284 46.986,36.586 C 46.860,36.889 46.295,37.974 46.120,38.250 C 45.944,38.526 44.250,40.986 43.970,41.320 C 43.690,41.654 41.561,43.749 41.320,43.970 C 41.079,44.191 40.108,44.936 39.832,45.112 C 39.556,45.288 36.981,46.802 36.586,46.986 C 36.192,47.170 33.377,48.169 33.065,48.267 C 32.752,48.366 31.558,48.631 31.233,48.673 C 30.909,48.716 27.827,48.986 27.500,49.000 C 27.173,49.014 25.946,48.960 25.626,48.918 C 25.306,48.877 22.214,48.639 22.017,48.286 C 21.821,47.932 22.214,43.356 22.254,42.853 C 22.294,42.349 22.624,40.067 22.698,39.649 C 22.771,39.231 23.411,35.910 23.509,35.692 C 23.608,35.475 24.333,35.675 24.381,35.922 Z M 10.259,40.316 C 10.533,39.959 16.349,36.901 16.990,36.589 C 17.630,36.276 21.049,34.987 21.239,34.958 C 21.429,34.930 20.367,35.918 20.246,36.104 C 20.126,36.290 19.292,37.845 19.181,38.149 C 19.071,38.452 18.403,40.933 18.359,41.307 C 18.315,41.682 18.373,44.220 18.423,44.571 C 18.473,44.921 19.306,47.224 19.208,47.315 C 19.110,47.405 16.986,46.248 16.750,46.120 C 16.514,45.991 15.428,45.311 15.168,45.112 C 14.908,44.912 12.584,42.983 12.297,42.703 C 12.011,42.423 9.986,40.672 10.259,40.316 Z M 9.723,17.900 C 9.701,18.010 8.812,18.284 8.706,18.328 C 8.601,18.372 7.891,18.768 7.914,18.657 C 7.936,18.546 8.980,16.473 9.085,16.429 C 9.191,16.384 9.745,17.789 9.723,17.900 Z" fill="#000000" fill-rule="evenodd"/>
</svg>
