<svg xmlns="http://www.w3.org/2000/svg" viewBox="0 0 55.000 55.000" width="55.000mm" height="55.000mm">
<rect x="0" y="0" width="55.000" height="55.000" fill="#ffffff"/>
<path id="gobo_32" d="M 27.500,4.000 C 27.024,4.000 23.888,4.274 23.419,4.357 C 22.950,4.440 19.804,5.310 19.463,5.417 C 19.121,5.525 17.886,6.037 17.568,6.202 C 17.251,6.367 14.411,7.977 14.021,8.250 C 13.631,8.523 11.220,10.546 10.883,10.883 C 10.546,11.220 8.523,13.631 8.250,14.021 C 7.977,14.411 6.367,17.251 6.202,17.568 C 6.037,17.886 5.525,19.121 5.417,19.463 C 5.310,19.804 4.440,22.950 4.357,23.419 C 4.274,23.888 4.000,27.024 4.000,27.500 C 4.000,27.976 4.310,31.226 4.357,31.581 C 4.404,31.936 4.693,33.241 4.801,33.582 C 4.908,33.924 6.001,37.000 6.202,37.432 C 6.403,37.863 7.977,40.589 8.250,40.979 C 8.523,41.369 10.546,43.780 10.883,44.117 C 11.220,44.454 13.631,46.477 14.021,46.750 C 14.411,47.023 17.137,48.597 17.568,48.798 C 18.000,48.999 20.958,50.076 21.418,50.199 C 21.878,50.322 25.097,50.864 25.452,50.911 C 25.807,50.957 27.261,51.000 27.500,51.000 C 27.739,51.000 29.193,50.957 29.548,50.911 C 29.903,50.864 33.122,50.322 33.582,50.199 C 34.042,50.076 37.000,48.999 37.432,48.798 C 37.863,48.597 40.589,47.023 40.979,46.750 C 41.369,46.477 43.780,44.454 44.117,44.117 C 44.454,43.780 46.477,41.369 46.750,40.979 C 47.023,40.589 48.597,37.863 48.798,37.432 C 48.999,37.000 50.076,34.042 50.199,33.582 C 50.322,33.122 50.864,29.903 50.911,29.548 C 50.957,29.193 51.000,27.739 51.000,27.500 C 51.000,27.261 50.957,25.807 50.911,25.452 C 50.864,25.097 50.322,21.878 50.199,21.418 C 50.076,20.958 48.999,18.000 48.798,17.568 C 48.597,17.137 47.023,14.411 46.750,14.021 C 46.477,13.631 44.454,11.220 44.117,10.883 C 43.780,10.546 41.369,8.523 40.979,8.250 C 40.589,7.977 37.863,6.403 37.432,6.202 C 37.000,6.001 33.924,4.908 33.582,4.801 C 33.241,4.693 31.936,4.404 31.581,4.357 C 31.226,4.310 27.976,4.000 27.500,4.000 Z M 34.097,8.550 C 34.276,8.528 36.534,8.564 36.710,8.548 C 36.885,8.533 36.922,8.206 37.105,8.284 C 37.287,8.362 39.505,9.654 39.832,9.888 C 40.158,10.122 42.395,11.989 42.703,12.297 C 43.011,12.605 44.912,14.908 45.112,15.168 C 45.311,15.428 45.968,16.460 46.120,16.750 C 46.271,17.040 47.554,19.737 47.703,20.147 C 47.852,20.556 48.598,23.338 48.673,23.767 C 48.749,24.196 49.005,27.040 49.000,27.500 C 48.995,27.960 49.007,31.544 48.579,31.658 C 48.151,31.773 42.240,29.669 41.664,29.465 C 41.088,29.262 39.049,28.332 38.711,28.166 C 38.372,28.000 35.952,26.761 35.868,26.622 C 35.785,26.482 37.141,25.888 37.279,25.779 C 37.418,25.671 38.148,24.886 38.247,24.761 C 38.345,24.637 38.894,23.780 38.964,23.645 C 39.033,23.509 39.399,22.621 39.442,22.434 C 39.486,22.247 39.706,20.642 39.712,20.440 C 39.718,20.238 39.560,19.102 39.539,18.971 C 39.518,18.840 39.408,18.260 39.350,18.196 C 39.293,18.133 38.793,17.412 38.553,17.881 C 38.313,18.350 35.671,25.911 35.235,26.239 C 34.798,26.566 31.328,23.656 31.066,23.493 C 30.803,23.329 30.771,23.431 30.733,23.440 C 30.695,23.449 30.436,23.615 30.412,23.649 C 30.389,23.683 30.329,23.985 30.334,24.024 C 30.339,24.063 30.295,24.165 30.504,24.314 C 30.713,24.464 33.869,26.370 33.916,26.594 C 33.963,26.818 31.501,28.206 31.304,28.152 C 31.107,28.098 30.656,25.916 30.539,25.662 C 30.423,25.408 29.451,23.958 29.307,23.805 C 29.162,23.652 28.322,23.126 28.061,23.041 C 27.800,22.956 25.059,22.402 24.831,22.344 C 24.602,22.285 24.215,22.017 24.141,22.037 C 24.068,22.056 23.530,22.595 23.570,22.677 C 23.610,22.758 24.415,23.079 24.827,23.427 C 25.238,23.776 30.363,28.277 30.620,28.650 C 30.877,29.024 29.409,29.842 29.236,29.826 C 29.063,29.811 27.882,28.521 27.655,28.389 C 27.427,28.258 25.615,27.618 25.336,27.575 C 25.057,27.531 23.098,27.617 22.879,27.648 C 22.661,27.679 21.701,28.054 21.585,28.107 C 21.470,28.160 20.951,28.484 20.904,28.560 C 20.856,28.636 20.747,29.342 20.772,29.407 C 20.798,29.472 21.033,29.612 21.342,29.672 C 21.652,29.733 25.768,30.363 26.084,30.445 C 26.401,30.527 26.848,31.067 26.770,31.077 C 26.691,31.088 24.915,30.651 24.737,30.629 C 24.559,30.607 23.810,30.666 23.715,30.707 C 23.621,30.747 23.129,31.256 23.119,31.323 C 23.109,31.390 23.331,31.683 23.545,31.860 C 23.759,32.038 26.474,34.064 26.793,34.368 C 27.112,34.672 29.036,36.909 29.015,37.076 C 28.995,37.242 26.606,37.190 26.438,37.216 C 26.270,37.241 26.149,37.473 26.136,37.518 C 26.122,37.563 26.179,37.945 26.205,37.984 C 26.231,38.023 26.148,38.181 26.582,38.186 C 27.017,38.190 33.036,38.052 33.660,38.064 C 34.284,38.075 37.144,38.331 37.277,38.386 C 37.411,38.442 36.100,38.916 35.944,39.010 C 35.787,39.104 34.774,39.821 34.596,39.998 C 34.419,40.175 33.030,41.871 32.906,42.042 C 32.781,42.213 32.495,42.792 32.465,42.931 C 32.434,43.070 32.357,44.292 32.377,44.422 C 32.398,44.552 32.731,45.119 32.812,45.161 C 32.893,45.203 33.468,45.306 33.765,45.142 C 34.062,44.977 37.402,42.637 37.904,42.342 C 38.405,42.047 42.080,40.254 42.362,40.085 C 42.643,39.917 42.576,39.460 42.728,39.456 C 42.880,39.452 44.967,39.833 44.966,40.022 C 44.964,40.212 43.002,42.406 42.703,42.703 C 42.403,43.000 40.189,44.862 39.832,45.112 C 39.475,45.362 36.981,46.802 36.586,46.986 C 36.192,47.170 33.377,48.169 33.065,48.267 C 32.752,48.366 31.558,48.631 31.233,48.673 C 30.909,48.716 27.936,49.000 27.500,49.000 C 27.064,49.000 24.196,48.749 23.767,48.673 C 23.338,48.598 20.556,47.852 20.147,47.703 C 19.737,47.554 17.127,46.337 16.750,46.120 C 16.373,45.902 13.940,44.169 13.680,43.970 C 13.420,43.771 12.518,42.944 12.297,42.703 C 12.076,42.461 10.138,40.189 9.888,39.832 C 9.638,39.475 8.198,36.981 8.014,36.586 C 7.830,36.192 6.845,33.485 6.733,33.065 C 6.620,32.644 6.120,29.808 6.082,29.374 C 6.044,28.940 6.044,26.060 6.082,25.626 C 6.120,25.192 6.662,22.255 6.733,21.935 C 6.803,21.616 7.171,20.449 7.297,20.147 C 7.422,19.844 8.729,17.040 8.880,16.750 C 9.032,16.460 9.689,15.428 9.888,15.168 C 10.088,14.908 12.076,12.539 12.297,12.297 C 12.518,12.056 13.420,11.229 13.680,11.030 C 13.940,10.831 16.474,9.056 16.750,8.880 C 17.026,8.705 18.111,8.140 18.414,8.014 C 18.716,7.889 21.518,6.845 21.935,6.733 C 22.353,6.620 25.343,6.104 25.569,6.089 C 25.796,6.075 25.661,6.392 25.815,6.479 C 25.969,6.567 28.074,7.511 28.205,7.593 C 28.336,7.674 28.499,7.788 28.061,7.879 C 27.622,7.969 21.142,9.055 20.692,9.144 C 20.242,9.233 20.371,9.361 20.350,9.401 C 20.329,9.441 20.303,9.785 20.332,9.828 C 20.361,9.871 20.430,10.181 20.845,10.131 C 21.260,10.080 27.117,8.916 27.441,8.959 C 27.765,9.003 26.506,10.618 26.393,10.878 C 26.280,11.139 25.556,13.131 25.500,13.418 C 25.445,13.705 25.427,15.599 25.443,15.804 C 25.460,16.009 25.725,16.801 25.777,16.930 C 25.830,17.059 26.212,17.830 26.347,18.013 C 26.481,18.196 27.785,19.777 28.086,20.068 C 28.386,20.359 31.257,22.839 31.506,23.001 C 31.755,23.163 32.321,22.920 32.349,22.845 C 32.378,22.771 32.155,22.546 31.995,21.723 C 31.835,20.900 29.700,9.496 29.607,8.735 C 29.514,7.974 30.173,8.578 30.401,8.677 C 30.628,8.775 33.149,10.204 33.503,10.421 C 33.857,10.638 36.063,12.103 36.474,12.400 C 36.885,12.696 40.283,15.326 40.548,15.507 C 40.813,15.687 40.977,15.522 41.019,15.498 C 41.061,15.474 41.270,15.150 41.274,15.101 C 41.278,15.053 41.297,14.849 41.085,14.669 C 40.874,14.489 38.153,12.368 37.643,12.013 C 37.133,11.658 32.585,8.786 32.340,8.584 C 32.095,8.383 33.374,8.538 33.450,8.558 C 33.526,8.578 33.611,8.925 33.648,8.925 C 33.686,8.924 33.918,8.572 34.097,8.550 Z M 48.362,32.636 C 48.558,32.948 47.150,36.206 46.986,36.586 C 46.821,36.967 45.886,39.085 45.540,39.160 C 45.194,39.235 41.552,37.979 41.061,37.874 C 40.570,37.769 37.333,37.453 37.118,37.357 C 36.902,37.260 37.358,36.370 37.368,36.221 C 37.378,36.073 37.340,35.047 37.293,34.812 C 37.247,34.577 36.695,32.483 36.570,32.192 C 36.444,31.901 35.297,30.015 35.136,29.820 C 34.976,29.625 33.936,28.886 33.811,28.846 C 33.687,28.806 33.050,29.069 33.002,29.128 C 32.953,29.187 32.834,29.385 32.978,29.854 C 33.123,30.324 35.423,36.760 35.480,37.181 C 35.536,37.602 34.184,37.271 33.948,37.077 C 33.713,36.884 31.727,34.194 31.436,33.870 C 31.145,33.546 28.943,31.799 28.959,31.519 C 28.976,31.240 31.372,29.333 31.719,29.081 C 32.065,28.829 34.386,27.146 34.901,27.205 C 35.415,27.264 40.027,29.854 40.537,30.089 C 41.046,30.324 43.179,31.087 43.635,31.236 C 44.092,31.385 48.167,32.324 48.362,32.636 Z M 34.162,7.079 C 34.201,7.064 34.778,7.269 34.853,7.297 C 34.929,7.324 35.494,7.531 35.456,7.546 C 35.418,7.561 34.276,7.577 34.200,7.550 C 34.125,7.522 34.124,7.094 34.162,7.079 Z M 32.809,7.571 C 32.724,7.638 30.808,7.690 30.610,7.661 C 30.411,7.631 29.476,7.112 29.404,7.059 C 29.333,7.007 29.413,6.777 29.387,6.764 C 29.361,6.751 29.085,6.887 28.957,6.843 C 28.829,6.799 27.164,6.058 27.189,6.014 C 27.213,5.969 29.090,6.053 29.374,6.082 C 29.658,6.111 31.859,6.423 32.060,6.510 C 32.260,6.597 32.893,7.503 32.809,7.571 Z M 29.708,33.523 C 29.753,33.506 31.066,34.962 31.240,35.167 C 31.413,35.372 32.723,36.924 32.683,37.033 C 32.644,37.142 30.694,37.123 30.565,37.031 C 30.436,36.939 30.518,35.663 30.468,35.459 C 30.418,35.254 29.663,33.540 29.708,33.523 Z M 28.176,30.893 C 28.159,30.892 27.996,30.766 28.002,30.759 C 28.009,30.752 28.278,30.765 28.288,30.773 C 28.298,30.781 28.192,30.894 28.176,30.893 Z" fill="#000000" fill-rule="evenodd"/>
</svg>
