<svg xmlns="http://www.w3.org/2000/svg" viewBox="0 0 55.000 55.000" width="55.000mm" height="55.000mm">
<rect x="0" y="0" width="55.000" height="55.000" fill="#ffffff"/>
<path id="gobo_02" d="M 49.583,19.463 C 49.446,19.132 48.090,16.162 47.852,15.750 C 47.614,15.338 45.808,12.759 45.502,12.394 C 45.196,12.030 42.970,9.804 42.606,9.498 C 42.241,9.192 39.552,7.341 39.250,7.148 C 38.948,6.956 37.762,6.339 37.432,6.202 C 37.101,6.065 33.924,4.908 33.582,4.801 C 33.241,4.693 31.936,4.404 31.581,4.357 C 31.226,4.310 27.976,4.000 27.500,4.000 C 27.024,4.000 23.888,4.274 23.419,4.357 C 22.950,4.440 19.804,5.310 19.463,5.417 C 19.121,5.525 17.886,6.037 17.568,6.202 C 17.251,6.367 14.411,7.977 14.021,8.250 C 13.631,8.523 11.220,10.546 10.883,10.883 C 10.546,11.220 8.523,13.631 8.250,14.021 C 7.977,14.411 6.403,17.137 6.202,17.568 C 6.001,18.000 4.924,20.958 4.801,21.418 C 4.678,21.878 4.131,24.978 4.089,25.452 C 4.048,25.926 4.074,29.191 4.089,29.548 C 4.105,29.906 4.280,31.231 4.357,31.581 C 4.434,31.930 5.254,35.090 5.417,35.537 C 5.580,35.985 6.983,38.933 7.148,39.250 C 7.314,39.567 8.032,40.695 8.250,40.979 C 8.468,41.263 10.546,43.780 10.883,44.117 C 11.220,44.454 13.631,46.477 14.021,46.750 C 14.411,47.023 17.137,48.597 17.568,48.798 C 18.000,48.999 20.958,50.076 21.418,50.199 C 21.878,50.322 24.978,50.869 25.452,50.911 C 25.926,50.952 29.074,50.952 29.548,50.911 C 30.022,50.869 33.233,50.277 33.582,50.199 C 33.932,50.122 35.313,49.665 35.537,49.583 C 35.762,49.501 37.114,48.963 37.432,48.798 C 37.749,48.633 40.589,47.023 40.979,46.750 C 41.369,46.477 43.780,44.454 44.117,44.117 C 44.454,43.780 46.477,41.369 46.750,40.979 C 47.023,40.589 48.597,37.863 48.798,37.432 C 48.999,37.000 50.076,34.042 50.199,33.582 C 50.322,33.122 50.869,30.022 50.911,29.548 C 50.952,29.074 50.952,25.926 50.911,25.452 C 50.869,24.978 50.277,21.767 50.199,21.418 C 50.122,21.068 49.720,19.793 49.583,19.463 Z M 34.664,21.763 C 34.480,21.802 32.983,22.305 32.805,22.388 C 32.628,22.470 31.760,23.074 31.623,23.179 C 31.487,23.283 30.533,24.069 30.473,24.177 C 30.414,24.285 30.333,24.997 30.603,25.025 C 30.874,25.052 34.615,24.727 35.107,24.654 C 35.600,24.581 38.778,23.779 39.044,23.772 C 39.311,23.764 39.778,24.495 39.679,24.531 C 39.581,24.567 37.520,24.351 37.358,24.385 C 37.195,24.419 36.853,25.039 36.894,25.106 C 36.935,25.173 37.681,25.309 38.064,25.539 C 38.447,25.769 43.094,28.613 43.458,29.050 C 43.823,29.487 44.233,32.407 44.309,33.028 C 44.385,33.648 44.719,39.280 44.757,39.688 C 44.795,40.097 44.989,39.957 44.959,40.031 C 44.930,40.104 44.829,40.678 44.252,40.952 C 43.676,41.226 35.569,44.924 35.076,44.731 C 34.582,44.538 35.595,38.016 35.792,37.637 C 35.989,37.259 38.191,38.219 38.458,38.243 C 38.726,38.267 40.174,38.123 40.379,38.047 C 40.583,37.971 41.762,37.140 41.958,36.938 C 42.154,36.736 43.652,34.768 43.739,34.584 C 43.825,34.400 43.486,33.802 43.439,33.781 C 43.392,33.759 43.132,34.115 42.935,34.210 C 42.738,34.306 40.473,35.266 40.063,35.419 C 39.653,35.571 36.098,37.065 35.913,36.821 C 35.728,36.577 36.842,31.584 36.890,31.235 C 36.938,30.885 36.771,30.865 36.741,30.834 C 36.712,30.802 36.435,30.676 36.386,30.691 C 36.337,30.707 36.000,30.648 35.901,31.099 C 35.801,31.551 34.819,38.086 34.674,38.428 C 34.529,38.771 33.576,37.206 33.419,36.969 C 33.263,36.731 32.101,34.528 31.997,34.362 C 31.894,34.195 31.696,34.116 31.644,34.121 C 31.591,34.126 31.118,34.379 31.097,34.442 C 31.076,34.505 31.365,35.194 31.285,35.197 C 31.204,35.200 29.913,34.567 29.711,34.496 C 29.509,34.426 28.041,34.029 27.818,33.988 C 27.596,33.947 26.120,33.795 25.894,33.789 C 25.668,33.784 24.227,33.843 23.938,33.900 C 23.648,33.957 21.169,34.656 20.931,34.763 C 20.693,34.870 19.926,35.628 19.858,35.735 C 19.791,35.841 19.722,36.506 19.770,36.588 C 19.819,36.669 20.016,37.036 20.686,37.136 C 21.357,37.235 30.590,38.224 31.264,38.294 C 31.937,38.363 32.132,38.341 32.233,38.327 C 32.334,38.314 32.919,38.040 32.997,38.063 C 33.074,38.086 33.798,38.659 33.568,38.721 C 33.339,38.783 29.458,39.040 29.062,39.125 C 28.666,39.211 26.984,40.058 26.777,40.188 C 26.570,40.318 25.709,41.118 25.507,41.360 C 25.304,41.601 23.414,44.117 23.310,44.334 C 23.206,44.551 23.433,45.171 23.721,45.087 C 24.009,45.002 27.647,43.212 28.248,42.885 C 28.849,42.557 33.705,39.703 34.022,39.467 C 34.339,39.231 33.651,38.828 33.680,38.840 C 33.709,38.852 34.497,39.313 34.519,39.675 C 34.540,40.037 34.103,44.730 34.053,45.049 C 34.004,45.367 33.675,45.088 33.672,45.139 C 33.668,45.191 33.986,45.769 34.001,45.935 C 34.015,46.102 34.076,47.840 33.915,47.999 C 33.753,48.159 31.608,48.615 31.233,48.673 C 30.859,48.732 27.936,49.000 27.500,49.000 C 27.064,49.000 24.091,48.716 23.767,48.673 C 23.442,48.631 22.147,48.324 21.935,48.267 C 21.724,48.211 20.449,47.829 20.147,47.703 C 19.844,47.578 17.127,46.337 16.750,46.120 C 16.373,45.902 14.014,44.250 13.680,43.970 C 13.346,43.690 11.310,41.654 11.030,41.320 C 10.750,40.986 9.098,38.627 8.880,38.250 C 8.663,37.873 7.446,35.263 7.297,34.853 C 7.148,34.444 6.397,31.553 6.327,31.233 C 6.256,30.914 6.096,29.701 6.082,29.374 C 6.068,29.047 6.044,26.060 6.082,25.626 C 6.120,25.192 6.620,22.356 6.733,21.935 C 6.845,21.515 7.830,18.808 8.014,18.414 C 8.198,18.019 9.638,15.525 9.888,15.168 C 10.138,14.811 12.076,12.539 12.297,12.297 C 12.518,12.056 13.420,11.229 13.680,11.030 C 13.940,10.831 16.474,9.056 16.750,8.880 C 17.026,8.705 18.111,8.140 18.414,8.014 C 18.716,7.889 21.515,6.845 21.935,6.733 C 22.356,6.620 25.192,6.120 25.626,6.082 C 26.060,6.044 28.940,6.044 29.374,6.082 C 29.808,6.120 32.644,6.620 33.065,6.733 C 33.485,6.845 36.192,7.830 36.586,8.014 C 36.981,8.198 39.475,9.638 39.832,9.888 C 40.189,10.138 42.395,11.989 42.703,12.297 C 43.011,12.605 44.862,14.811 45.112,15.168 C 45.362,15.525 46.802,18.019 46.986,18.414 C 47.170,18.808 48.155,21.515 48.267,21.935 C 48.380,22.356 48.884,25.167 48.918,25.626 C 48.953,26.086 49.053,29.345 48.861,29.810 C 48.668,30.275 45.817,33.335 45.619,33.592 C 45.421,33.850 45.532,34.491 45.468,34.223 C 45.404,33.955 44.687,29.610 44.527,28.998 C 44.367,28.386 42.861,24.061 42.725,23.738 C 42.589,23.415 42.252,23.455 42.197,23.461 C 42.143,23.467 41.784,23.723 41.788,23.837 C 41.793,23.950 42.300,25.349 42.271,25.406 C 42.242,25.464 41.383,24.901 41.292,24.830 C 41.200,24.759 40.628,24.387 40.708,24.189 C 40.787,23.991 42.504,21.686 42.653,21.437 C 42.802,21.188 43.230,20.048 43.270,19.914 C 43.311,19.781 43.349,19.244 43.348,19.155 C 43.347,19.067 43.300,18.530 43.258,18.397 C 43.215,18.265 42.756,17.105 42.615,16.885 C 42.473,16.665 40.959,14.800 40.835,14.624 C 40.711,14.448 40.556,13.912 40.486,13.868 C 40.415,13.824 39.664,13.831 39.628,13.875 C 39.593,13.920 39.861,14.082 39.880,14.632 C 39.899,15.181 40.030,22.892 39.946,23.294 C 39.862,23.697 38.555,21.622 38.438,21.526 C 38.321,21.429 37.973,21.602 37.936,21.638 C 37.899,21.673 37.915,22.132 37.800,22.137 C 37.685,22.141 36.143,21.737 35.960,21.716 C 35.777,21.694 34.848,21.724 34.664,21.763 Z M 47.718,34.809 C 47.717,35.002 46.235,38.014 46.120,38.250 C 46.004,38.486 45.771,39.073 45.734,38.855 C 45.698,38.637 45.474,34.741 45.496,34.513 C 45.519,34.284 45.992,34.920 46.122,34.938 C 46.251,34.955 47.718,34.615 47.718,34.809 Z M 34.906,47.682 C 34.814,47.623 34.845,46.057 34.999,45.988 C 35.153,45.918 37.457,46.426 37.549,46.484 C 37.642,46.543 36.740,46.916 36.586,46.986 C 36.432,47.055 34.999,47.740 34.906,47.682 Z" fill="#000000" fill-rule="evenodd"/>
</svg>
